<?xml version="1.0" encoding="utf-8"?>
<!-- Generator: Adobe Illustrator 19.1.0, SVG Export Plug-In . SVG Version: 6.00 Build 0)  -->
<svg version="1.1" id="Layer_1" xmlns="http://www.w3.org/2000/svg" xmlns:xlink="http://www.w3.org/1999/xlink" x="0px" y="0px"
	 viewBox="0 0 1153.3 662.5" enable-background="new 0 0 1153.3 662.5" xml:space="preserve">
<g>
	<path fill="#DB7A58" d="M1030.9,428.5l23.9,19.6c0,0,5.1-7.8-1.8-13.4c-5.8-4.8-9.7-3.4-13.5-4.9c-3.7-1.5-6.9-5.2-6.9-5.2
		l-2.6,3.2L1030.9,428.5z"/>
	<path fill="#ED8B64" d="M1030.9,428.5l23.9,19.6c0,0-6.4,6.3-13.4,0.7c-5.8-4.8-5.1-9-7.4-12.4c-2.2-3.4-6.3-5.8-6.3-5.8l2.3-2.8
		L1030.9,428.5z"/>
	<path fill="#DB7A58" d="M910.9,330L887,310.4c0,0,6.6-6.6,13.5-0.9c5.8,4.8,5.1,8.8,7.3,12.2c2.2,3.4,6.3,5.6,6.3,5.6l-2.6,3.2
		L910.9,330z"/>
	<path fill="#ED8B64" d="M910.9,330L887,310.4c0,0-5,7.6,2,13.2c5.8,4.8,9.7,3.2,13.4,4.7c3.7,1.5,6.8,5,6.8,5l2.3-2.8L910.9,330z"
		/>
	<path fill="#CC6148" d="M920.6,337.9l-1.4,1.8c-1.8,2.1-5.4,2.1-7.5,0.3l-2.7-2.2c-2.1-1.8-2.3-4.8-0.5-6.9l1.4-1.8L920.6,337.9z"
		/>
	<path fill="#B24F3B" d="M909.8,329.1l1.9-2.3c1.8-2.1,4.8-2.7,6.9-0.9l2.7,2.2c2.1,1.8,2.9,5.4,1.1,7.5l-1.9,2.3L909.8,329.1z"/>
	<path fill="#CC6148" d="M1031.7,429.1l-1.4,1.8c-1.8,2.1-5.1,2.3-7.2,0.6l-2.7-2.2c-2.1-1.8-2.6-5-0.8-7.2l1.4-1.8L1031.7,429.1z"
		/>
	<path fill="#B24F3B" d="M1021,420.3l1.9-2.3c1.8-2.1,5.1-2.4,7.2-0.7l2.7,2.2c2.1,1.8,2.6,5.1,0.8,7.3l-1.9,2.3L1021,420.3z"/>
	<path fill="#EFB173" d="M1026.3,424.7c-11.1,13.5-18.9,15.6-18.9,15.6l-51.8-42.5l-0.5-0.4l-51.8-42.5c0,0,0.5-8.1,11.6-21.6
		L1026.3,424.7z"/>
	<path fill="#E09F65" d="M1026.3,424.7c11.6-14.1,12.1-22.2,12.1-22.2L986.6,360l-0.5-0.4l-51.8-42.5c0,0-7.8,2.1-19.4,16.2
		L1026.3,424.7z"/>
</g>
<g>
	<path fill="none" stroke="#9E9E9E" stroke-width="3" stroke-linecap="round" stroke-linejoin="round" stroke-miterlimit="10" d="
		M196,332.8c0,0,15.8,2.5,32.5-2.8c65-9.6,54.3,33.4,54.3,33.4"/>
	<path fill="none" stroke="#848484" stroke-width="3" stroke-linecap="round" stroke-linejoin="round" stroke-miterlimit="10" d="
		M196,332.9c0,0,13.8,8,23.5,22.6c44.5,48.3,63.2,8.2,63.2,8.2"/>
	<path fill="none" stroke="#9E9E9E" stroke-width="3" stroke-linecap="round" stroke-linejoin="round" stroke-miterlimit="10" d="
		M196,332.8c0,0,15.5,3.1,31.5,0.1c62.6-3,55.3,30.6,55.3,30.6"/>
	<path fill="none" stroke="#848484" stroke-width="3" stroke-linecap="round" stroke-linejoin="round" stroke-miterlimit="10" d="
		M196,332.9c0,0,14.1,7.3,24.6,19.8c46.8,41.8,62.2,11.1,62.2,11.1"/>
	<path fill="none" stroke="#9E9E9E" stroke-width="3" stroke-linecap="round" stroke-linejoin="round" stroke-miterlimit="10" d="
		M196,332.8c0,0,15.4,3.7,30.7,2.5c60.7,2.5,56.2,28.2,56.2,28.2"/>
	<path fill="none" stroke="#848484" stroke-width="3" stroke-linecap="round" stroke-linejoin="round" stroke-miterlimit="10" d="
		M196,332.8c0,0,14.2,6.8,25.4,17.3c48.7,36.3,61.4,13.5,61.4,13.5"/>
	<path fill="none" stroke="#9E9E9E" stroke-width="3" stroke-linecap="round" stroke-linejoin="round" stroke-miterlimit="10" d="
		M195.9,333c0,0,15.1,4.3,29.7,5.3c58.4,8.9,57.2,25.4,57.2,25.4"/>
	<path fill="none" stroke="#848484" stroke-width="3" stroke-linecap="round" stroke-linejoin="round" stroke-miterlimit="10" d="
		M195.9,333c0,0,14.4,6.2,26.4,14.5c51,29.9,60.4,16.3,60.4,16.3"/>
	<path fill="none" stroke="#9E9E9E" stroke-width="3" stroke-linecap="round" stroke-linejoin="round" stroke-miterlimit="10" d="
		M195.9,333c0,0,14.9,4.8,28.7,8c56.3,14.9,58.1,22.8,58.1,22.8"/>
	<path fill="none" stroke="#848484" stroke-width="3" stroke-linecap="round" stroke-linejoin="round" stroke-miterlimit="10" d="
		M195.9,333c0,0,14.6,5.7,27.3,11.9c53.1,23.9,59.5,18.9,59.5,18.9"/>
	<path fill="#AF6C35" d="M187.8,330c-0.8,2.2,0.4,4.6,2.6,5.3l8.1,2.9c2.2,0.8,4.4-0.4,5.1-2.6l0.1-0.2"/>
	<path fill="#C97F3D" d="M187.8,329.9l16.1,5.4c0.8-2.2-0.3-4.6-2.4-5.3l-8.1-2.9c-2.2-0.8-4.7,0.5-5.5,2.7l0,0"/>
	<path fill="#EFB173" d="M119.5,305.6c1.1-3.1,4.5-4.7,7.6-3.6l63.9,22.6c3.1,1.1,4.8,4.5,3.7,7.6l0,0"/>
	<path fill="#E09F65" d="M194.7,332.1c-1,2.8-4.5,4.6-7.6,3.5L123.3,313c-3.1-1.1-4.7-4.1-3.6-7.2l0.1-0.2L194.7,332.1z"/>
</g>
<g>
	<path fill="#FFFFFF" d="M868.5,464.1l16.6-15.7c0,0-10.9-11.7-16-9c-4.6,2.2-10.1,16.1-10.1,16.1L868.5,464.1z"/>
	<path fill="#FFFFFF" d="M869,449.3c0,0-13.4-4.7-18.7,0.3c-5.4,5.1-6.1,24.9-6.1,24.9l5.4,7.4l26.7-25.2L869,449.3z"/>
	<path fill="none" stroke="#98D6DE" stroke-width="2" stroke-miterlimit="10" d="M884.9,448.2c0,0-5.4-8.5-13.9-8.5
		S858.1,459,858.1,459"/>
	<path fill="#EFEFEF" d="M868.5,464.1l16.6-15.7c0,0,11,11.5,8,16.5c-2.4,4.5-16.8,9.1-16.8,9.1L868.5,464.1z"/>
	<path fill="#EFEFEF" d="M883.3,464.5c0,0,3.9,13.6-1.5,18.7s-25.2,4.6-25.2,4.6l-7-5.8l26.7-25.2L883.3,464.5z"/>
	<path fill="none" stroke="#98D6DE" stroke-width="2" stroke-miterlimit="10" d="M873,474.7c0,0,19.6-3.2,20-11.7
		c0.5-8.5-7.7-14.4-7.7-14.4l-0.6-0.7"/>
	<path fill="#D83F25" d="M852.3,479.4l-7.2,6.8l1.3,1.4c0,0,6.5,1.7,9.6,0.4S852.3,479.4,852.3,479.4z"/>
	<path fill="#EF5329" d="M852.3,479.4l-7.2,6.8l-1.5-1.6c0,0-1.2-6.4,0.3-9.5C845.4,471.9,852.3,479.4,852.3,479.4z"/>
	<path fill="#EFEFEF" d="M848.5,483l-88.4,83.2l4.1,4.4c0,0,42.6-18.1,74.1-42.9C869.8,502.8,848.5,483,848.5,483z"/>
	<path fill="#FFFFFF" d="M848.5,483l-88.4,83.2l-4-4.3c0,0,20.6-41.5,47.3-71.5C830,460.5,848.5,483,848.5,483z"/>
	<path fill="#A8A8A8" d="M760.1,566.2l-8.5,8c0,0,1.4,1.5,2,1.6c0.7-0.3,10.2-5.6,10.2-5.6L760.1,566.2z"/>
	<path fill="#C6C6C6" d="M759,567.3l3.5-3.3c0,0,5.5,5.4,4.4,8.1S759,567.3,759,567.3z"/>
	<path fill="#BABABA" d="M760.1,566.2l-8.5,8c0,0-1.2-1.3-1.2-1.9c0.3-0.7,6.4-9.6,6.4-9.6L760.1,566.2z"/>
	<path fill="#D3D3D3" d="M759,567.3l3.5-3.3c0,0-5.1-5.8-7.8-4.9C752,559.9,759,567.3,759,567.3z"/>
</g>
<g>
	<g>
		<path fill="#EF5329" d="M625.4,581.4L550,489.9c0,0-19,13.9-9.1,38c6.3,15.5,32.3,43,41.2,49.1c7.5,6.5,21.6,22.2,21.6,22.2
			L625.4,581.4z"/>
		<path fill="#D64A29" d="M616.1,500.9c-2.7-1.1-8.5-0.3-9,4.8s5.3,23.2,3,22.6c-4.9-1.2-14.5-30.2-23.8-37.3
			c-21.9-17.2-36.3-1-36.3-1l75.4,91.8l19.7-16.2c0,0-9.6-23.8-10.6-27.8c-1.1-4-7.5-15.8-9.5-23.6
			C622.9,506.4,618.8,502,616.1,500.9z"/>
	</g>
	<defs>
		<filter id="Adobe_OpacityMaskFilter" filterUnits="userSpaceOnUse" x="538" y="483.1" width="107" height="116.2">
			<feColorMatrix  type="matrix" values="1 0 0 0 0  0 1 0 0 0  0 0 1 0 0  0 0 0 1 0"/>
		</filter>
	</defs>
	<mask maskUnits="userSpaceOnUse" x="538" y="483.1" width="107" height="116.2" id="SVGID_2_">
		<g filter="url(#Adobe_OpacityMaskFilter)">
			<g>
				<g>
					<line fill="none" stroke="#FFFFFF" stroke-width="2" stroke-miterlimit="10" x1="546.3" y1="479" x2="556.8" y2="626.6"/>
					<line fill="none" stroke="#FFFFFF" stroke-width="2" stroke-miterlimit="10" x1="562.6" y1="467.8" x2="574.9" y2="640"/>
					<line fill="none" stroke="#FFFFFF" stroke-width="2" stroke-miterlimit="10" x1="579.3" y1="460" x2="592.3" y2="642.6"/>
					<line fill="none" stroke="#FFFFFF" stroke-width="2" stroke-miterlimit="10" x1="596.1" y1="455.5" x2="609.5" y2="643.8"/>
					<line fill="none" stroke="#FFFFFF" stroke-width="2" stroke-miterlimit="10" x1="613.3" y1="455.4" x2="626.7" y2="643.5"/>
					<line fill="none" stroke="#FFFFFF" stroke-width="2" stroke-miterlimit="10" x1="659.6" y1="630.5" x2="647.5" y2="460.5"/>
					<line fill="none" stroke="#FFFFFF" stroke-width="2" stroke-miterlimit="10" x1="643.4" y1="640.9" x2="630.2" y2="455.5"/>
					<line fill="none" stroke="#FFFFFF" stroke-width="2" stroke-miterlimit="10" x1="676.4" y1="619.1" x2="666" y2="472.6"/>
				</g>
				<g>
					<line fill="none" stroke="#FFFFFF" stroke-width="2" stroke-miterlimit="10" x1="681.1" y1="487.3" x2="533.5" y2="497.8"/>
					<line fill="none" stroke="#FFFFFF" stroke-width="2" stroke-miterlimit="10" x1="692.3" y1="503.6" x2="520.1" y2="515.8"/>
					<line fill="none" stroke="#FFFFFF" stroke-width="2" stroke-miterlimit="10" x1="700.1" y1="520.2" x2="517.5" y2="533.2"/>
					<line fill="none" stroke="#FFFFFF" stroke-width="2" stroke-miterlimit="10" x1="704.6" y1="537" x2="516.3" y2="550.5"/>
					<line fill="none" stroke="#FFFFFF" stroke-width="2" stroke-miterlimit="10" x1="704.7" y1="554.2" x2="516.6" y2="567.6"/>
					<line fill="none" stroke="#FFFFFF" stroke-width="2" stroke-miterlimit="10" x1="529.6" y1="600.6" x2="699.6" y2="588.5"/>
					<line fill="none" stroke="#FFFFFF" stroke-width="2" stroke-miterlimit="10" x1="519.2" y1="584.4" x2="704.6" y2="571.2"/>
					<line fill="none" stroke="#FFFFFF" stroke-width="2" stroke-miterlimit="10" x1="541" y1="617.4" x2="687.5" y2="606.9"/>
				</g>
			</g>
		</g>
	</mask>
	<g mask="url(#SVGID_2_)">
		<path fill="#FFFFFF" d="M625.4,581.4L550,489.9c0,0-19,13.9-9.1,38c6.3,15.5,32.3,43,41.2,49.1c7.5,6.5,21.6,22.2,21.6,22.2
			L625.4,581.4z"/>
		<path fill="#FFFFFF" d="M616.1,500.9c-2.7-1.1-8.5-0.3-9,4.8s5.3,23.2,3,22.6c-4.9-1.2-14.5-30.2-23.8-37.3
			c-21.9-17.2-36.3-1-36.3-1l75.4,91.8l19.7-16.2c0,0-9.6-23.8-10.6-27.8c-1.1-4-7.5-15.8-9.5-23.6
			C622.9,506.4,618.8,502,616.1,500.9z"/>
	</g>
	<path fill="none" stroke="#EF5329" stroke-width="5" stroke-miterlimit="10" d="M603.7,599.3l1.8,7.3c0,0,1.2,6.5-2.9,5.9
		c-4-0.6-2.2-6.1-2.2-6.1L603.7,599.3z"/>
</g>
<g>
	<path fill="#DB8875" d="M763.7,102.1c-6.6-2.4-10.4-8.4-7.1-17.5c3.3-9,13.1-19.4,19.7-17"/>
	<path fill="#CE7D6F" d="M776.3,67.6c6.5,2.4,7.4,16.6,4.1,25.7c-3.3,9-10.2,11.2-16.7,8.8L776.3,67.6z"/>
	
		<ellipse transform="matrix(0.9973 -7.292087e-02 7.292087e-02 0.9973 -3.687 56.9781)" fill="#FFFFFF" cx="778.5" cy="79" rx="1.2" ry="2.2"/>
	<path fill="#DB8875" d="M728,113.5c-1.8,6.8-7.5,11.1-16.8,8.6s-20.5-11.3-18.7-18.1"/>
	<path fill="#CE7D6F" d="M692.5,104c1.8-6.7,15.9-8.9,25.2-6.4c9.3,2.5,12,9.2,10.3,15.8L692.5,104z"/>
	
		<ellipse transform="matrix(-0.1607 -0.987 0.987 -0.1607 717.2031 811.4615)" fill="#FFFFFF" cx="703.6" cy="100.8" rx="1.2" ry="2.2"/>
	<path fill="#DB8875" d="M737,55.8c3,6.3,1.5,13.3-7.2,17.5c-8.7,4.2-23,4.7-26-1.6"/>
	<path fill="#CE7D6F" d="M703.8,71.7c-3-6.2,6.4-17.1,15.1-21.2s15.1-0.8,18.1,5.4L703.8,71.7z"/>
	
		<ellipse transform="matrix(-0.763 -0.6464 0.6464 -0.763 1211.9595 568.3894)" fill="#FFFFFF" cx="710.2" cy="62" rx="1.2" ry="2.2"/>
	<path fill="#DB8875" d="M811,84.1c-5.9-3.7-8.4-10.4-3.3-18.6c5.1-8.2,16.8-16.3,22.8-12.6"/>
	<path fill="#CE7D6F" d="M830.5,52.9c5.9,3.7,3.8,17.8-1.3,26s-12.3,8.8-18.1,5.2L830.5,52.9z"/>
	
		<ellipse transform="matrix(0.9909 0.1349 -0.1349 0.9909 16.2846 -111.3964)" fill="#FFFFFF" cx="830.3" cy="64.5" rx="1.2" ry="2.2"/>
	<path fill="#DB8875" d="M837.6,32.5c-2-6.7,0.5-13.4,9.7-16.2c9.2-2.8,23.4-1.2,25.4,5.5"/>
	<path fill="#CE7D6F" d="M872.7,21.8c2,6.6-8.8,15.9-18.1,18.7c-9.2,2.8-15.1-1.4-17.1-8L872.7,21.8z"/>
	
		<ellipse transform="matrix(0.658 0.753 -0.753 0.658 318.7246 -640.9421)" fill="#FFFFFF" cx="864.9" cy="30.4" rx="1.2" ry="2.2"/>
	<path fill="#DB8875" d="M787.5,51.8c-7-0.1-12.6-4.6-12.4-14.2s6-22.6,13-22.5"/>
	<path fill="#CE7D6F" d="M788.1,15c6.9,0.1,12.4,13.3,12.3,22.9s-6,13.9-12.9,13.8L788.1,15z"/>
	
		<ellipse transform="matrix(0.919 -0.3943 0.3943 0.919 54.4574 315.1155)" fill="#FFFFFF" cx="793.9" cy="25.1" rx="1.2" ry="2.2"/>
</g>
<g>
	<path fill="#E09F65" d="M579.2,50.5c15.1-14.3,15.3-26.3,6.8-35.3l-29.7,28.1l-12.9,12.2l-77.7,73.6c1.7,1.8,6.7,1.7,10.4-1.8
		c0,0,64.9-63.4,70.3-65.6C554.6,57.5,564.1,64.7,579.2,50.5z"/>
	<path fill="#EFB173" d="M550.3,20c15.1-14.3,27.1-13.8,35.6-4.8l-29.7,28.1l-12.9,12.2l-77.7,73.6c-1.7-1.7-1.4-6.8,2.4-10.3
		c0,0,66.9-61.4,69.3-66.6C541.9,44.2,535.2,34.3,550.3,20z"/>
	<path fill="#E0A370" d="M548.8,50.4c-6.4-6.7-3.2-20.4,4.9-28.1c8.1-7.6,21.9-10.1,28.3-3.4L548.8,50.4z"/>
	<path fill="#D39466" d="M548.8,50.4c6.4,6.7,20.2,4.3,28.3-3.3c8.1-7.6,11.3-21.3,4.9-28.1L548.8,50.4z"/>
</g>
<g>
	<path fill="#80839B" d="M942.8,231.3c-31.7,0-57.4-25.7-57.4-57.4s25.7-57.4,57.4-57.4"/>
	<path fill="#797D93" d="M942.3,231.3c32,0,57.4-25.7,57.4-57.4s-25.4-57.4-57.4-57.4V231.3z"/>
	<path fill="#5A5D72" d="M942.5,121.4c29,0,52.5,23.5,52.5,52.5s-23.5,52.5-52.5,52.5"/>
	<path fill="#62647D" d="M942.3,121.4c-28,0-52.5,23.5-52.5,52.5s24.5,52.5,52.5,52.5V121.4z"/>
	<path opacity="0.7" fill="#FFFECA" d="M942.4,213.7c-22,0-39.8-17.8-39.8-39.8s17.8-39.8,39.8-39.8"/>
	<path opacity="0.7" fill="#F4F1BE" d="M942.3,134.1c23,0,39.8,17.8,39.8,39.8s-16.8,39.8-39.8,39.8V134.1z"/>
	<path opacity="0.6" fill="#FFFFFF" d="M963.1,145.5c2.3,3.4,4.5,6.9,6.8,10.3c1.7,2.6,3.5,5.3,4.7,8.3c3.2,8,1.2,17.8-4.8,24.1
		c-3.5,3.6-8,5.9-12.5,8.1c-7.3,3.5-15,6.6-23.1,6.5c-4,0-8.1-0.9-11.5-3c-6-3.6-9.3-10.7-9.8-17.7c-0.5-7,1.6-13.9,4.3-20.3
		c2.1-5,5.1-10.1,10.2-12c4.3-1.6,9.1-0.5,13.7-0.5c4.3,0,5.9-1.1,9.7-3.1c1.8-0.9,3.5-2.1,5.4-2.6
		C958.1,143.1,961.9,143.9,963.1,145.5"/>
	<circle fill="#FFE566" cx="934.6" cy="183.5" r="12"/>
	<circle fill="#FFFFFF" cx="928.6" cy="178.7" r="1.6"/>
</g>
<g>
	<path fill="#9D9D9E" stroke="#757575" stroke-width="3" stroke-miterlimit="10" d="M218.6,55l105.7-16.2c9-1.4,17.3,4.8,18.7,13.7
		l17.7,115.8c1.4,9-4.8,17.3-13.7,18.7l-105.7,16.2"/>
	<path fill="#AAAAAA" stroke="#757575" stroke-width="3" stroke-miterlimit="10" d="M241.3,203.2l-105.7,16.2
		c-9,1.4-17.3-4.8-18.7-13.7L99.2,89.8c-1.4-9,4.8-17.3,13.7-18.7L218.6,55"/>
	<g>
		<g>
			<path fill="#E2E2E2" d="M132.2,85.9c-2.8,0.4-4.7,3-4.3,5.8c0.2,1.2,1.3,2.6,1.2,2.9s-0.3,0.4-0.6,0.7l-6,4.7
				c-1.2,0.9-1.4,2.6-0.5,3.8v0c0.9,1.2,2.6,1.4,3.8,0.5l3.2-2.6l0.5,3c0.1,0.5-1.9,9.6-1.9,9.6l-0.6,0.1c-1.1,0.2-1.9,1.4-1.7,2.5
				c0.2,1.1,1.2,2,2.4,1.9l2.6-0.4c0,0,0-0.1,0.1-0.1c1.1-0.1,2-0.9,2.3-2c0,0,2.6-7.4,3-7.5"/>
			<path fill="#CDCFD3" d="M132.2,85.9c2.8-0.4,5.4,1.5,5.8,4.3c0.2,1.2-0.5,2.8-0.3,3.1c0.1,0.3,0.4,0.3,0.8,0.5l7.1,2.7
				c1.4,0.5,2.1,2,1.7,3.4v0c-0.5,1.4-2.1,2.2-3.5,1.7l-3.9-1.5l0.5,3c0.1,0.5,4.9,8.6,4.9,8.6l0.6-0.1c1.1-0.2,2.2,0.7,2.4,1.9
				c0.2,1.1-0.6,2.3-1.7,2.5l-2.6,0.4c0,0-0.1-0.1-0.1-0.1c-1.1,0.2-2.2-0.3-2.8-1.2c0,0-4.7-6.3-5.1-6.3"/>
		</g>
		<g>
			<path fill="#E2E2E2" d="M167.8,80.5c-2.8,0.4-4.7,3-4.3,5.8c0.2,1.2,1.3,2.6,1.2,2.9c-0.1,0.3-0.3,0.4-0.6,0.7l-6,4.7
				c-1.2,0.9-1.4,2.6-0.5,3.8v0c0.9,1.2,2.5,1.5,3.7,0.6l3.1-2.6l0.5,3c0.1,0.5-1.7,9.6-1.7,9.6l-0.6,0.1c-1.1,0.2-1.9,1.4-1.7,2.5
				c0.2,1.1,1.2,2,2.4,1.9l2.6-0.4c0,0,0-0.1,0.1-0.1c1.1-0.1,2-0.9,2.3-2c0,0,2.6-7.4,3-7.5"/>
			<path fill="#CDCFD3" d="M167.8,80.5c2.8-0.4,5.4,1.5,5.8,4.3c0.2,1.2-0.5,2.8-0.3,3.1c0.1,0.3,0.4,0.3,0.8,0.5l7.1,2.7
				c1.4,0.5,2.1,2,1.7,3.4v0c-0.5,1.4-2.3,2.2-3.7,1.7l-4-1.5l0.5,3c0.1,0.5,5.2,8.5,5.2,8.5l0.6-0.1c1.1-0.2,2.2,0.7,2.4,1.9
				c0.2,1.1-0.6,2.3-1.7,2.5l-2.6,0.4c0,0-0.1-0.1-0.1-0.1c-1.1,0.2-2.2-0.3-2.8-1.2c0,0-4.7-6.3-5.1-6.3"/>
		</g>
		<g>
			<path fill="#E2E2E2" d="M203.4,75c-2.8,0.4-4.7,3-4.3,5.8c0.2,1.2,1.3,2.6,1.2,2.9s-0.3,0.4-0.6,0.7l-6,4.7
				c-1.2,0.9-1.4,2.6-0.5,3.8v0c0.9,1.2,2.7,1.4,3.9,0.5l3.3-2.6l0.5,3c0.1,0.5-2.1,9.6-2.1,9.6l-0.6,0.1c-1.1,0.2-1.9,1.4-1.7,2.5
				c0.2,1.1,1.2,2,2.4,1.9l2.6-0.4c0,0,0-0.1,0.1-0.1c1.1-0.1,2-0.9,2.3-2c0,0,2.6-7.4,3-7.5"/>
			<path fill="#CDCFD3" d="M203.4,75c2.8-0.4,5.4,1.5,5.8,4.3c0.2,1.2-0.5,2.8-0.3,3.1c0.1,0.3,0.4,0.3,0.8,0.5l7.1,2.7
				c1.4,0.5,2.1,2,1.7,3.4v0c-0.5,1.4-2,2.1-3.5,1.7l-3.8-1.5l0.5,3c0.1,0.5,4.7,8.6,4.7,8.6l0.6-0.1c1.1-0.2,2.2,0.7,2.4,1.9
				c0.2,1.1-0.6,2.3-1.7,2.5l-2.6,0.4c0,0-0.1-0.1-0.1-0.1c-1.1,0.2-2.2-0.3-2.8-1.2c0,0-4.7-6.3-5.1-6.3"/>
		</g>
		<g>
			<path fill="#E2E2E2" d="M239.1,69.6c-2.8,0.4-4.7,3-4.3,5.8c0.2,1.2,1.3,2.6,1.2,2.9s-0.3,0.4-0.6,0.7l-6,4.7
				c-1.2,0.9-1.4,2.6-0.5,3.8v0c0.9,1.2,2.5,1.4,3.7,0.6l3.1-2.6l0.5,3c0.1,0.5-1.8,9.6-1.8,9.6l-0.6,0.1c-1.1,0.2-1.9,1.4-1.7,2.5
				c0.2,1.1,1.2,2,2.4,1.9l2.6-0.4c0,0,0-0.1,0.1-0.1c1.1-0.1,2-0.9,2.3-2c0,0,2.6-7.4,3-7.5"/>
			<path fill="#CDCFD3" d="M239.1,69.6c2.8-0.4,5.4,1.5,5.8,4.3c0.2,1.2-0.5,2.8-0.3,3.1c0.1,0.3,0.4,0.3,0.8,0.5l7.1,2.7
				c1.4,0.5,2.1,2,1.7,3.4v0c-0.5,1.4-1.8,2.1-3.2,1.6l-3.6-1.6l0.5,3c0.1,0.5,4.3,8.7,4.3,8.7l0.6-0.1c1.1-0.2,2.2,0.7,2.4,1.9
				c0.2,1.1-0.6,2.3-1.7,2.5l-2.6,0.4c0,0-0.1-0.1-0.1-0.1c-1.1,0.2-2.2-0.3-2.8-1.2c0,0-4.7-6.3-5.1-6.3"/>
		</g>
		<g>
			<path fill="#E2E2E2" d="M274.8,64.5c-2.8,0.4-4.7,3-4.3,5.8c0.2,1.2,1.3,2.6,1.2,2.9s-0.3,0.4-0.6,0.7l-6,4.7
				c-1.2,0.9-1.4,2.6-0.5,3.8v0c0.9,1.2,2.8,1.4,4,0.5l3.4-2.6l0.5,3c0.1,0.5-2.2,10-2.2,10l-0.6,0.1c-1.1,0.2-1.9,1-1.8,2.1
				c0.2,1.1,1.2,1.7,2.3,1.5l2.6-0.4c0,0,0.1,0.1,0.1,0c1.1-0.1,2-0.8,2.3-1.9c0,0,2.6-7.4,3-7.5"/>
			<path fill="#CDCFD3" d="M274.8,64.5c2.8-0.4,5.4,1.5,5.8,4.3c0.2,1.2-0.5,2.8-0.3,3.1c0.1,0.3,0.4,0.3,0.8,0.5l7.1,2.7
				c1.4,0.5,2.1,2,1.7,3.4l0,0c-0.5,1.4-2,2.1-3.4,1.6l-3.7-1.5l0.5,3c0.1,0.5,4.6,9,4.6,9l0.6-0.1c1.1-0.2,2.1,0.4,2.3,1.5
				c0.2,1.1-0.6,1.9-1.8,2.1l-2.6,0.4c0,0-0.1,0.1-0.1,0.1c-1.1,0.2-2.2-0.2-2.8-1.1c0,0-4.7-6.3-5.1-6.2"/>
		</g>
		<g>
			<path fill="#E2E2E2" d="M310.4,59c-2.8,0.4-4.7,3-4.3,5.8c0.2,1.2,1.3,2.6,1.2,2.9s-0.3,0.4-0.6,0.7l-6,4.7
				c-1.2,0.9-1.4,2.6-0.5,3.8v0c0.9,1.2,2.6,1.4,3.8,0.5l3.2-2.6l0.5,3c0.1,0.5-1.9,10-1.9,10l-0.6,0.1c-1.1,0.2-1.9,1-1.8,2.1
				c0.2,1.1,1.2,1.7,2.3,1.5l2.6-0.4c0,0,0.1,0.1,0.1,0c1.1-0.1,2-0.8,2.3-1.9c0,0,2.6-7.4,3-7.5"/>
			<path fill="#CDCFD3" d="M310.4,59c2.8-0.4,5.4,1.5,5.8,4.3c0.2,1.2-0.5,2.8-0.3,3.1c0.1,0.3,0.4,0.3,0.8,0.5l7.1,2.7
				c1.4,0.5,2.1,2,1.7,3.4v0c-0.5,1.4-2.1,2.2-3.5,1.7l-3.9-1.5l0.5,3c0.1,0.5,4.9,8.9,4.9,8.9L324,85c1.1-0.2,2.1,0.4,2.3,1.5
				c0.2,1.1-0.6,1.9-1.8,2.1l-2.6,0.4c0,0-0.1,0.1-0.1,0.1c-1.1,0.2-2.2-0.2-2.8-1.1c0,0-4.7-6.3-5.1-6.2"/>
		</g>
	</g>
	<g>
		<g>
			<path fill="#E2E2E2" d="M138.4,126.8c-2.8,0.4-4.7,3-4.3,5.8c0.2,1.2,1.3,2.6,1.2,2.9c-0.1,0.3-0.3,0.4-0.6,0.7l-6,4.7
				c-1.2,0.9-1.4,2.6-0.5,3.8l0,0c0.9,1.2,2.6,1.4,3.8,0.5l3.2-2.6l0.5,3c0.1,0.5-1.9,9.8-1.9,9.8l-0.6,0.1
				c-1.1,0.2-1.9,1.4-1.7,2.5c0.2,1.1,1.2,2,2.4,1.9l2.6-0.4c0,0,0-0.2,0.1-0.2c1.1-0.1,2-0.9,2.3-2c0,0,2.6-7.5,3-7.5"/>
			<path fill="#CDCFD3" d="M138.4,126.8c2.8-0.4,5.4,1.5,5.8,4.3c0.2,1.2-0.5,2.8-0.3,3.1s0.4,0.3,0.8,0.5l7.1,2.7
				c1.4,0.5,2.1,2,1.7,3.4v0c-0.5,1.4-2.1,2.2-3.5,1.7l-3.9-1.5l0.5,3c0.1,0.5,4.9,8.8,4.9,8.8l0.6-0.1c1.1-0.2,2.2,0.7,2.4,1.9
				c0.2,1.1-0.6,2.3-1.7,2.5l-2.6,0.4c0,0-0.1-0.2-0.1-0.2c-1.1,0.2-2.2-0.3-2.8-1.3c0,0-4.7-6.4-5.1-6.3"/>
		</g>
		<g>
			<path fill="#E2E2E2" d="M174.1,121.4c-2.8,0.4-4.7,3-4.3,5.8c0.2,1.2,1.3,2.6,1.2,2.9s-0.3,0.4-0.6,0.7l-6,4.7
				c-1.2,0.9-1.4,2.6-0.5,3.8v0c0.9,1.2,2.5,1.5,3.7,0.6l3.1-2.6l0.5,3c0.1,0.5-1.6,9.8-1.6,9.8l-0.6,0.1c-1.1,0.2-1.9,1.4-1.7,2.5
				c0.2,1.1,1.2,2,2.4,1.9l2.6-0.4c0,0,0-0.2,0.1-0.2c1.1-0.1,2-0.9,2.3-2c0,0,2.6-7.5,3-7.5"/>
			<path fill="#CDCFD3" d="M174.1,121.4c2.8-0.4,5.4,1.5,5.8,4.3c0.2,1.2-0.5,2.8-0.3,3.1s0.4,0.3,0.8,0.5l7.1,2.7
				c1.4,0.5,2.1,2,1.7,3.4l0,0c-0.5,1.4-2.3,2.2-3.7,1.7l-4-1.5l0.5,3c0.1,0.5,5.2,8.7,5.2,8.7l0.6-0.1c1.1-0.2,2.2,0.7,2.4,1.9
				c0.2,1.1-0.6,2.3-1.7,2.5l-2.6,0.4c0,0-0.1-0.2-0.1-0.2c-1.1,0.2-2.2-0.3-2.8-1.3c0,0-4.7-6.4-5.1-6.3"/>
		</g>
		<g>
			<path fill="#E2E2E2" d="M209.7,115.9c-2.8,0.4-4.7,3-4.3,5.8c0.2,1.2,1.3,2.6,1.2,2.9s-0.3,0.4-0.6,0.7l-6,4.7
				c-1.2,0.9-1.4,2.6-0.5,3.8l0,0c0.9,1.2,2.7,1.4,3.9,0.5l3.3-2.6l0.5,3c0.1,0.5-2.1,9.8-2.1,9.8l-0.6,0.1
				c-1.1,0.2-1.9,1.4-1.7,2.5c0.2,1.1,1.2,2,2.4,1.9l2.6-0.4c0,0,0-0.2,0.1-0.2c1.1-0.1,2-0.9,2.3-2c0,0,2.6-7.5,3-7.5"/>
			<path fill="#CDCFD3" d="M209.7,115.9c2.8-0.4,5.4,1.5,5.8,4.3c0.2,1.2-0.5,2.8-0.3,3.1c0.1,0.3,0.4,0.3,0.8,0.5l7.1,2.7
				c1.4,0.5,2.1,2,1.7,3.4v0c-0.5,1.4-2,2.1-3.5,1.7l-3.8-1.5l0.5,3c0.1,0.5,4.7,8.8,4.7,8.8l0.6-0.1c1.1-0.2,2.2,0.7,2.4,1.9
				c0.2,1.1-0.6,2.3-1.7,2.5l-2.6,0.4c0,0-0.1-0.2-0.1-0.2c-1.1,0.2-2.2-0.3-2.8-1.3c0,0-4.7-6.4-5.1-6.3"/>
		</g>
		<g>
			<path fill="#E2E2E2" d="M245.3,110.5c-2.8,0.4-4.7,3-4.3,5.8c0.2,1.2,1.3,2.6,1.2,2.9c-0.1,0.3-0.3,0.4-0.6,0.7l-6,4.7
				c-1.2,0.9-1.4,2.6-0.5,3.8l0,0c0.9,1.2,2.5,1.4,3.7,0.6l3.1-2.6l0.5,3c0.1,0.5-1.8,9.8-1.8,9.8l-0.6,0.1
				c-1.1,0.2-1.9,1.4-1.7,2.5c0.2,1.1,1.2,2,2.4,1.9l2.6-0.4c0,0,0-0.2,0.1-0.2c1.1-0.1,2-0.9,2.3-2c0,0,2.6-7.5,3-7.5"/>
			<path fill="#CDCFD3" d="M245.3,110.5c2.8-0.4,5.4,1.5,5.8,4.3c0.2,1.2-0.5,2.8-0.3,3.1c0.1,0.3,0.4,0.3,0.8,0.5l7.1,2.7
				c1.4,0.5,2.1,2,1.7,3.4v0c-0.5,1.4-1.8,2.1-3.2,1.6l-3.6-1.6l0.5,3c0.1,0.5,4.3,8.9,4.3,8.9l0.6-0.1c1.1-0.2,2.2,0.7,2.4,1.9
				c0.2,1.1-0.6,2.3-1.7,2.5l-2.6,0.4c0,0-0.1-0.2-0.1-0.2c-1.1,0.2-2.2-0.3-2.8-1.3c0,0-4.7-6.4-5.1-6.3"/>
		</g>
		<g>
			<path fill="#E2E2E2" d="M281,105.4c-2.8,0.4-4.7,3-4.3,5.8c0.2,1.2,1.3,2.6,1.2,2.9c-0.1,0.3-0.3,0.4-0.6,0.7l-6,4.7
				c-1.2,0.9-1.4,2.6-0.5,3.8v0c0.9,1.2,2.8,1.4,4,0.5l3.4-2.6l0.5,3c0.1,0.5-2.3,9.5-2.3,9.5l-0.6,0.1c-1.1,0.2-1.9,1.4-1.7,2.5
				c0.2,1.1,1.2,2,2.4,1.9l2.6-0.4c0,0,0.1,0,0.1-0.1c1.1-0.1,2-0.9,2.3-1.9c0,0,2.6-7.4,3-7.5"/>
			<path fill="#CDCFD3" d="M281,105.4c2.8-0.4,5.4,1.5,5.8,4.3c0.2,1.2-0.5,2.8-0.3,3.1c0.1,0.3,0.4,0.3,0.8,0.5l7.1,2.7
				c1.4,0.5,2.1,2,1.7,3.4v0c-0.5,1.4-2,2.1-3.4,1.6l-3.7-1.5l0.5,3c0.1,0.5,4.5,8.5,4.5,8.5l0.6-0.1c1.1-0.2,2.2,0.7,2.4,1.9
				c0.2,1.1-0.6,2.3-1.7,2.5l-2.6,0.4c0,0-0.1,0-0.1,0c-1.1,0.2-2.2-0.2-2.8-1.2c0,0-4.7-6.3-5.1-6.2"/>
		</g>
		<g>
			<path fill="#E2E2E2" d="M316.7,99.9c-2.8,0.4-4.7,3-4.3,5.8c0.2,1.2,1.3,2.6,1.2,2.9c-0.1,0.3-0.3,0.4-0.6,0.7l-6,4.7
				c-1.2,0.9-1.4,2.6-0.5,3.8v0c0.9,1.2,2.6,1.4,3.8,0.5l3.2-2.6l0.5,3c0.1,0.5-2,9.5-2,9.5l-0.6,0.1c-1.1,0.2-1.9,1.4-1.7,2.5
				c0.2,1.1,1.2,2,2.4,1.9l2.6-0.4c0,0,0.1,0,0.1-0.1c1.1-0.1,2-0.9,2.3-1.9c0,0,2.6-7.4,3-7.5"/>
			<path fill="#CDCFD3" d="M316.7,99.9c2.8-0.4,5.4,1.5,5.8,4.3c0.2,1.2-0.5,2.8-0.3,3.1c0.1,0.3,0.4,0.3,0.8,0.5l7.1,2.7
				c1.4,0.5,2.1,2,1.7,3.4v0c-0.5,1.4-2.1,2.2-3.5,1.7l-3.9-1.5l0.5,3c0.1,0.5,4.8,8.4,4.8,8.4l0.6-0.1c1.1-0.2,2.2,0.7,2.4,1.9
				c0.2,1.1-0.6,2.3-1.7,2.5l-2.6,0.4c0,0-0.1,0-0.1,0c-1.1,0.2-2.2-0.2-2.8-1.2c0,0-4.7-6.3-5.1-6.2"/>
		</g>
	</g>
	<g>
		<g>
			<path fill="#E2E2E2" d="M144.7,168.1c-2.8,0.4-4.7,3-4.3,5.8c0.2,1.2,1.3,2.6,1.2,2.9c-0.1,0.3-0.3,0.4-0.6,0.7l-6,4.7
				c-1.2,0.9-1.4,2.6-0.5,3.8l0,0c0.9,1.2,2.6,1.4,3.8,0.5l3.2-2.6l0.5,3c0.1,0.5-1.8,10.4-1.8,10.4l-0.6,0.1
				c-1.1,0.2-1.9,1-1.8,2.1c0.2,1.1,1.2,1.7,2.3,1.5l2.6-0.4c0,0,0-0.1,0.1-0.2c1.1-0.1,2-0.9,2.3-2c0,0,2.6-7.4,3-7.5"/>
			<path fill="#CDCFD3" d="M144.7,168.1c2.8-0.4,5.4,1.5,5.8,4.3c0.2,1.2-0.5,2.8-0.3,3.1c0.1,0.3,0.4,0.3,0.8,0.5l7.1,2.7
				c1.4,0.5,2.1,2,1.7,3.4v0c-0.5,1.4-2.1,2.2-3.5,1.7l-3.9-1.5l0.5,3c0.1,0.5,5,9.3,5,9.3l0.6-0.1c1.1-0.2,2.1,0.4,2.3,1.5
				c0.2,1.1-0.6,1.9-1.8,2.1l-2.6,0.4c0,0-0.1-0.1-0.1-0.1c-1.1,0.2-2.2-0.3-2.8-1.2c0,0-4.7-6.3-5.1-6.3"/>
		</g>
		<g>
			<path fill="#E2E2E2" d="M180.4,162.7c-2.8,0.4-4.7,3-4.3,5.8c0.2,1.2,1.3,2.6,1.2,2.9c-0.1,0.3-0.3,0.4-0.6,0.7l-6,4.7
				c-1.2,0.9-1.4,2.6-0.5,3.8l0,0c0.9,1.2,2.5,1.5,3.7,0.6l3.1-2.6l0.5,3c0.1,0.5-1.5,10.3-1.5,10.3l-0.6,0.1
				c-1.1,0.2-1.9,1-1.8,2.1c0.2,1.1,1.2,1.7,2.3,1.5l2.6-0.4c0,0,0-0.1,0.1-0.2c1.1-0.1,2-0.9,2.3-2c0,0,2.6-7.4,3-7.5"/>
			<path fill="#CDCFD3" d="M180.4,162.7c2.8-0.4,5.4,1.5,5.8,4.3c0.2,1.2-0.5,2.8-0.3,3.1s0.4,0.3,0.8,0.5l7.1,2.7
				c1.4,0.5,2.1,2,1.7,3.4v0c-0.5,1.4-2.3,2.2-3.7,1.7l-4-1.5l0.5,3c0.1,0.5,5.3,9.3,5.3,9.3l0.6-0.1c1.1-0.2,2.1,0.4,2.3,1.5
				c0.2,1.1-0.6,1.9-1.8,2.1L192,193c0,0-0.1-0.1-0.1-0.1c-1.1,0.2-2.2-0.3-2.8-1.2c0,0-4.7-6.3-5.1-6.3"/>
		</g>
		<g>
			<path fill="#E2E2E2" d="M216,157.2c-2.8,0.4-4.7,3-4.3,5.8c0.2,1.2,1.3,2.6,1.2,2.9s-0.3,0.4-0.6,0.7l-6,4.7
				c-1.2,0.9-1.4,2.6-0.5,3.8v0c0.9,1.2,2.7,1.4,3.9,0.5l3.3-2.6l0.5,3c0.1,0.5-2,10.4-2,10.4l-0.6,0.1c-1.1,0.2-1.9,1-1.8,2.1
				c0.2,1.1,1.2,1.7,2.3,1.5l2.6-0.4c0,0,0-0.1,0.1-0.2c1.1-0.1,2-0.9,2.3-2c0,0,2.6-7.4,3-7.5"/>
			<path fill="#CDCFD3" d="M216,157.2c2.8-0.4,5.4,1.5,5.8,4.3c0.2,1.2-0.5,2.8-0.3,3.1s0.4,0.3,0.8,0.5l7.1,2.7
				c1.4,0.5,2.1,2,1.7,3.4l0,0c-0.5,1.4-2,2.1-3.5,1.7l-3.8-1.5l0.5,3c0.1,0.5,4.8,9.4,4.8,9.4l0.6-0.1c1.1-0.2,2.1,0.4,2.3,1.5
				c0.2,1.1-0.6,1.9-1.8,2.1l-2.6,0.4c0,0-0.1-0.1-0.1-0.1c-1.1,0.2-2.2-0.3-2.8-1.2c0,0-4.7-6.3-5.1-6.3"/>
		</g>
		<g>
			<path fill="#E2E2E2" d="M251.6,151.8c-2.8,0.4-4.7,3-4.3,5.8c0.2,1.2,1.3,2.6,1.2,2.9c-0.1,0.3-0.3,0.4-0.6,0.7l-6,4.7
				c-1.2,0.9-1.4,2.6-0.5,3.8l0,0c0.9,1.2,2.5,1.4,3.7,0.6l3.1-2.6l0.5,3c0.1,0.5-1.7,10.4-1.7,10.4l-0.6,0.1
				c-1.1,0.2-1.9,1-1.8,2.1c0.2,1.1,1.2,1.7,2.3,1.5l2.6-0.4c0,0,0-0.1,0.1-0.2c1.1-0.1,2-0.9,2.3-2c0,0,2.6-7.4,3-7.5"/>
			<path fill="#CDCFD3" d="M251.6,151.8c2.8-0.4,5.4,1.5,5.8,4.3c0.2,1.2-0.5,2.8-0.3,3.1c0.1,0.3,0.4,0.3,0.8,0.5l7.1,2.7
				c1.4,0.5,2.1,2,1.7,3.4v0c-0.5,1.4-1.8,2.1-3.2,1.6l-3.6-1.6l0.5,3c0.1,0.5,4.4,9.4,4.4,9.4l0.6-0.1c1.1-0.2,2.1,0.4,2.3,1.5
				c0.2,1.1-0.6,1.9-1.8,2.1l-2.6,0.4c0,0-0.1-0.1-0.1-0.1c-1.1,0.2-2.2-0.3-2.8-1.2c0,0-4.7-6.3-5.1-6.3"/>
		</g>
		<g>
			<path fill="#E2E2E2" d="M287.3,146.7c-2.8,0.4-4.7,3-4.3,5.8c0.2,1.2,1.3,2.6,1.2,2.9s-0.3,0.4-0.6,0.7l-6,4.7
				c-1.2,0.9-1.4,2.6-0.5,3.8v0c0.9,1.2,2.8,1.4,4,0.5l3.4-2.6l0.5,3c0.1,0.5-2.2,10.1-2.2,10.1l-0.6,0.1c-1.1,0.2-1.9,1.4-1.7,2.5
				c0.2,1.1,1.2,2,2.4,1.9l2.6-0.4c0,0,0-0.3,0.1-0.3c1.1-0.1,2-1,2.3-2.1c0,0,2.6-7.5,3-7.6"/>
			<path fill="#CDCFD3" d="M287.3,146.7c2.8-0.4,5.4,1.5,5.8,4.3c0.2,1.2-0.5,2.8-0.3,3.1s0.4,0.3,0.8,0.5l7.1,2.7
				c1.4,0.5,2.1,2,1.7,3.4h0c-0.5,1.4-2,2.1-3.4,1.6l-3.7-1.5l0.5,3c0.1,0.5,4.6,9,4.6,9l0.6-0.1c1.1-0.2,2.2,0.7,2.4,1.9
				c0.2,1.1-0.6,2.3-1.7,2.5l-2.6,0.4c0,0-0.1-0.3-0.1-0.3c-1.1,0.2-2.2-0.4-2.8-1.3c0,0-4.7-6.4-5.1-6.3"/>
		</g>
		<g>
			<path fill="#E2E2E2" d="M323,141.2c-2.8,0.4-4.7,3-4.3,5.8c0.2,1.2,1.3,2.6,1.2,2.9s-0.3,0.4-0.6,0.7l-6,4.7
				c-1.2,0.9-1.4,2.6-0.5,3.8v0c0.9,1.2,2.6,1.4,3.8,0.5l3.2-2.6l0.5,3c0.1,0.5-1.9,10-1.9,10l-0.6,0.1c-1.1,0.2-1.9,1.4-1.7,2.5
				c0.2,1.1,1.2,2,2.4,1.9l2.6-0.4c0,0,0-0.3,0.1-0.3c1.1-0.1,2-1,2.3-2.1c0,0,2.6-7.5,3-7.6"/>
			<path fill="#CDCFD3" d="M323,141.2c2.8-0.4,5.4,1.5,5.8,4.3c0.2,1.2-0.5,2.8-0.3,3.1c0.1,0.3,0.4,0.3,0.8,0.5l7.1,2.7
				c1.4,0.5,2.1,2,1.7,3.4v0c-0.5,1.4-2.1,2.2-3.5,1.7l-3.9-1.5l0.5,3c0.1,0.5,4.9,9,4.9,9l0.6-0.1c1.1-0.2,2.2,0.7,2.4,1.9
				c0.2,1.1-0.6,2.3-1.7,2.5l-2.6,0.4c0,0-0.1-0.3-0.1-0.3c-1.1,0.2-2.2-0.4-2.8-1.3c0,0-4.7-6.4-5.1-6.3"/>
		</g>
	</g>
</g>
<g>
	<path fill="#BDD2DB" d="M368.4,535.2l-6.1-3.7c-2.1-1.3-4.8-0.6-6.1,1.5l-6.9,11.2c-1.3,2.1-0.6,4.8,1.5,6.1l6.1,3.7"/>
	<path fill="#AEC6CE" d="M368.3,535.1l6.1,3.7c2.1,1.3,2.7,4,1.5,6.1l-6.9,11.2c-1.3,2.1-4,2.7-6.1,1.5l-6.1-3.7"/>
	<g>
		<path fill="#BDD2DB" d="M365.1,540.7c-21.9-13.3-28.8-41.9-15.4-63.8c12.5-20.5,38.4-27.8,59.6-17.7l7.7-3.5"/>
		<path fill="#D3E9F2" d="M367.1,537.6c-20.3-12.4-26.7-38.8-14.3-59.1c11.6-19,35.5-25.8,55.2-16.4l7.1-3.3"/>
		<path fill="#FFFFFF" d="M370.2,532.3c-17.4-10.6-22.9-33.3-12.3-50.7c10.6-17.4,33.3-22.9,50.7-12.3"/>
		<path fill="#AEC6CE" d="M365,540.7c21.9,13.3,50.4,6.4,63.8-15.4c12.5-20.5,7.2-46.8-11.5-61.1l-0.4-8.4"/>
		<path fill="#CEE4EA" d="M366.6,537.8c20.3,12.4,46.7,6,59.1-14.3c11.6-19,6.7-43.4-10.6-56.6l-0.2-8"/>
		<path fill="#F5F6F7" d="M370.1,532.3c17.4,10.6,40.1,5.1,50.7-12.3c10.6-17.4,5.1-40.1-12.3-50.7"/>
	</g>
	<path fill="none" stroke="#DFE9ED" stroke-width="2" stroke-linecap="round" stroke-miterlimit="10" d="M411.8,478.2
		c-1.8-1.8-3.8-3.4-6.1-4.8c-14.5-8.8-33.4-4.3-42.2,10.2c-4,6.5-5.2,13.9-4.1,20.9"/>
	<path fill="none" stroke="#DFE9ED" stroke-width="2" stroke-linecap="round" stroke-miterlimit="10" d="M417.5,506.1
		c-0.6,3.3-1.8,6.6-3.6,9.6c-5.7,9.3-15.9,14-26.1,13"/>
	<path fill="none" stroke="#DFE9ED" stroke-linecap="round" stroke-miterlimit="10" d="M366.6,515.1c-4.8-8.4-5-19.1,0.4-28
		c3.9-6.4,10.1-10.7,16.9-12.4"/>
</g>
<g>
	<path fill="#DB8875" d="M230.8,525.2c-6.8-1.5-11.5-6.9-9.5-16.3c2-9.4,10.3-21.1,17.1-19.6"/>
	<path fill="#CE7D6F" d="M238.4,489.3c6.8,1.4,9.7,15.5,7.7,24.9c-2,9.4-8.5,12.5-15.3,11.1L238.4,489.3z"/>
	
		<ellipse transform="matrix(0.9775 -0.2111 0.2111 0.9775 -100.1287 62.3926)" fill="#FFFFFF" cx="242.2" cy="500.3" rx="1.2" ry="2.2"/>
	<path fill="#DB8875" d="M197,541.5c-0.8,6.9-5.9,12-15.4,10.9c-9.6-1.2-21.9-8.4-21-15.3"/>
	<path fill="#CE7D6F" d="M160.5,537c0.8-6.9,14.5-11,24.1-9.8c9.6,1.2,13.2,7.4,12.4,14.3L160.5,537z"/>
	
		<ellipse transform="matrix(-0.2966 -0.955 0.955 -0.2966 -286.482 853.5532)" fill="#FFFFFF" cx="171.1" cy="532.3" rx="1.2" ry="2.2"/>
	<path fill="#DB8875" d="M197.9,483.1c3.9,5.8,3.4,13-4.7,18.3c-8,5.3-22.1,7.8-25.9,2"/>
	<path fill="#CE7D6F" d="M167.3,503.4c-3.8-5.8,3.9-17.8,12-23.1c8-5.3,14.8-2.9,18.7,2.8L167.3,503.4z"/>
	
		<ellipse transform="matrix(-0.8455 -0.5339 0.5339 -0.8455 54.6474 1001.7016)" fill="#FFFFFF" cx="172.2" cy="492.9" rx="1.2" ry="2.2"/>
</g>
</svg>
