<?xml version="1.0" encoding="utf-8"?>
<!-- Generator: Adobe Illustrator 19.1.0, SVG Export Plug-In . SVG Version: 6.00 Build 0)  -->
<svg version="1.1" id="Layer_1" xmlns="http://www.w3.org/2000/svg" xmlns:xlink="http://www.w3.org/1999/xlink" x="0px" y="0px"
	 viewBox="0 0 122.7 122.7" enable-background="new 0 0 122.7 122.7" xml:space="preserve">
<g>
	<path fill="#F2BE86" d="M62.6,74.6V24.8c44,0,50,42.3,50,42.3l-3,10.5h-47V74.6z"/>
	<path fill="#FFD097" d="M62.6,74.1V24.2c-44,0-51.2,42.6-51.2,42.6l1.8,10.8h49.4V74.1z"/>
	<polygon fill="#49ADA1" points="62.6,122.6 62.6,64.8 69,70.6 75.6,64.8 82.3,70.6 89.3,64.6 95.7,70.2 102.2,64.6 108.2,69.8 
		114.1,64.7 97.5,122.6 	"/>
	<polygon fill="#3DA394" points="102.1,64.4 92.6,122.6 88.4,122.6 95.7,69.9 	"/>
	<polygon fill="#3DA394" points="82,122.6 89.2,64.4 82.1,70.4 78,122.6 	"/>
	<polygon fill="#3DA394" points="70.9,122.6 75.3,64.6 68.4,70.4 67.2,122.6 	"/>
	<polygon fill="#3DA394" points="114.1,64.7 97.5,122.6 95.5,122.6 108.2,69.5 	"/>
	<polygon fill="#5CC6C1" points="62.6,122.6 62.6,64.8 54.9,70.6 47.7,64.8 40.7,70.6 33.6,64.6 27,70.2 20.5,64.6 14.5,69.8 
		8.5,64.7 25.1,122.6 	"/>
	<polygon fill="#4FB7AD" points="20.5,64.4 30,122.6 34.3,122.6 27,69.9 	"/>
	<polygon fill="#4FB7AD" points="40.6,122.6 33.5,64.4 40.5,70.4 44.7,122.6 	"/>
	<polygon fill="#4FB7AD" points="51.8,122.6 47.4,64.6 54.3,70.4 55.4,122.6 	"/>
	<polygon fill="#4FB7AD" points="8.5,64.7 25.1,122.6 27.2,122.6 14.5,69.5 	"/>
	<path fill="#FFF98D" d="M93.5,25.8c0,0,0.9-5.3-6.8-9.8c-6.8-3.9-13.2-0.2-13.2-0.2S59.3,28,47.4,35.2s-30.1,9.7-32.8,13.2
		c-1.6,2.2-4.1,7.5-2.2,9.7c0.6,0.7,11.1,3.6,21.8,3.8c10.3,0.2,20.9-2.4,23.2-3c4.8-1.2,13.4-8,21-15.6S93.5,25.8,93.5,25.8z"/>
	<path fill="#FFF98D" d="M93.5,25.8c0,0,11.4,4.5,16.2,13.7c4.9,9.2,2.7,20.2,0.8,21.3c-2,1.1-7-3.6-17-2.4
		C70.8,63.7,59,58.5,59,58.5S85,37.4,93.5,25.8z"/>
	<path fill="#FFF98D" d="M80,17.5c3.7-5.1-2.5-10.9-8.2-14.2S59,0,59,0s5.2,1.1,3.9,7.8c-1,5.4-6.9,1.3-16.2,3.5
		c-30.1,7-32,37.1-32,37.1s27.3-8.7,33.2-12.3C53.7,32.5,76.3,22.7,80,17.5z"/>
	<path fill="#FFE780" d="M81.1,14.3c0,0-4.9,14.9-26.7,18.3C32,34.1,15.1,43.3,15.1,43.3S14,44.8,14,45.8s0.7,2.6,0.7,2.6
		S30,40.5,54.6,37.5C79.8,35.9,81.1,14.3,81.1,14.3z"/>
	<path fill="#FFE780" d="M93.5,25.8c0,0,5.4,14.3-13.5,17.2c-18.9,2.9-21,10-21,10s-3.3,5.1-3,6c0,0.1,0.8,0.4,1.6,0.2
		c0.7-0.1,1.4-0.6,1.6-0.8c0.4-0.5,2.5-8.3,20.7-11.3C106,42.9,93.5,25.8,93.5,25.8z"/>
	<path fill="#EF5329" d="M85.8,30.4L85.8,30.4c0.1-0.6,0.6-1,1.1-0.9l6.1,0.6c0.6,0.1,1,0.6,0.9,1.1v0c-0.1,0.6-0.6,1-1.1,0.9
		l-6.1-0.6C86.2,31.5,85.8,31,85.8,30.4z"/>
	<path fill="#FFFFFF" d="M29,33.9L29,33.9c-0.4-0.3-0.5-1-0.2-1.4l3.7-4.8c0.3-0.4,1-0.5,1.4-0.2v0c0.4,0.3,0.5,1,0.2,1.4l-3.7,4.8
		C30.1,34.1,29.5,34.2,29,33.9z"/>
	<path fill="#5CC6C1" d="M40.3,36.2L40.3,36.2c-0.3-0.5-0.1-1.1,0.3-1.4l5.2-3.2c0.5-0.3,1.1-0.1,1.4,0.3v0c0.3,0.5,0.1,1.1-0.3,1.4
		l-5.2,3.2C41.2,36.8,40.6,36.7,40.3,36.2z"/>
	<path fill="#FFFFFF" d="M67.2,34L67.2,34c0.1-0.6,0.6-0.9,1.2-0.8l6,1c0.6,0.1,0.9,0.6,0.8,1.2l0,0c-0.1,0.6-0.6,0.9-1.2,0.8l-6-1
		C67.5,35.1,67.1,34.6,67.2,34z"/>
	<path fill="#EF5329" d="M59.9,24.7L59.9,24.7c0.5,0.3,0.6,0.9,0.4,1.4l-3.1,5.2c-0.3,0.5-0.9,0.6-1.4,0.4h0
		c-0.5-0.3-0.6-0.9-0.4-1.4l3.1-5.2C58.8,24.6,59.4,24.5,59.9,24.7z"/>
	<path fill="#FFFFFF" d="M69.1,14.3L69.1,14.3c0.6,0,1,0.4,1.1,1l0.2,6.1c0,0.6-0.4,1-1,1.1l0,0c-0.6,0-1-0.4-1.1-1l-0.2-6.1
		C68.1,14.7,68.5,14.3,69.1,14.3z"/>
	<path fill="#F9AFE5" d="M43.5,16.5L43.5,16.5c0.6,0.1,0.9,0.6,0.9,1.2l-0.9,6c-0.1,0.6-0.6,0.9-1.2,0.9h0c-0.6-0.1-0.9-0.6-0.9-1.2
		l0.9-6C42.4,16.8,42.9,16.4,43.5,16.5z"/>
	<path fill="#F9AFE5" d="M87.2,37L87.2,37c0.3,0.5,0,1.1-0.5,1.4L81.3,41c-0.5,0.3-1.1,0-1.4-0.5v0c-0.3-0.5,0-1.1,0.5-1.4l5.5-2.7
		C86.4,36.3,87,36.5,87.2,37z"/>
	<path fill="#5CC6C1" d="M58.9,15.8L58.9,15.8c0.2,0.5,0,1.1-0.5,1.4l-5.6,2.4c-0.5,0.2-1.1,0-1.4-0.5l0,0c-0.2-0.5,0-1.1,0.5-1.4
		l5.6-2.4C58,15.1,58.6,15.3,58.9,15.8z"/>
	<path fill="#5CC6C1" d="M84.1,17.4L84.1,17.4c0.4,0.4,0.5,1,0.1,1.4l-4,4.6c-0.4,0.4-1,0.5-1.4,0.1v0c-0.4-0.4-0.5-1-0.1-1.4l4-4.6
		C83,17.1,83.7,17.1,84.1,17.4z"/>
</g>
</svg>
