<?xml version="1.0" encoding="utf-8"?>
<!-- Generator: Adobe Illustrator 19.1.0, SVG Export Plug-In . SVG Version: 6.00 Build 0)  -->
<svg version="1.1" id="Layer_1" xmlns="http://www.w3.org/2000/svg" xmlns:xlink="http://www.w3.org/1999/xlink" x="0px" y="0px"
	 viewBox="0 0 122.7 122.7" enable-background="new 0 0 122.7 122.7" xml:space="preserve">
<g>
	<path fill="#EFC29A" d="M61.3,0C28.3,0,0,27.5,0,61.3s28.3,61.3,61.3,61.3V0z"/>
	<path fill="#E2B48F" d="M61.3,0c34,0,61.3,27.5,61.3,61.3s-27.3,61.3-61.3,61.3V0z"/>
	<path fill="#F2A5E2" d="M61.3,8.5c6-0.7,10.4-1.6,15.1,0.3c1.3,0.5,2.6,1.1,4,1.5c1.6,0.4,3.1,1.3,4.4,2.3c0.2,0.2,0.4,0.3,0.7,0.5
		c0.9,0.7,1.8,1.3,2.5,2.2c1,1.3,1.5,2.9,2.5,4.2l0.2,0.7c0.7,1.1,1.9,1.9,3,2.6c5.7,3.5,11.1,7.7,14.7,13.3s5.2,12.8,2.8,19.1
		c-1.9,5-6.3,9-7.5,14.3c-1.8,7.8,3.8,15.9,1.5,23.6c-1.2,4-4.5,7.2-8.5,8.2c-3.9,1-8.2,0-12,1.5c-3.8,1.5-6.5,5.1-9.5,7.8
		c-3.8,3.4-7.9,5.3-13.9,5.8V8.5z"/>
	<path fill="#F9AFE5" d="M61.3,116.1c-6,0.5-11.9-1-16.7-4.7c-2.9-2.3-5.2-5.2-8.4-7.2c-3.3-2.1-7.3-2.9-11-4.1
		c-3.8-1.2-7.6-3.1-9.6-6.4c-3.7-5.9-0.6-13.5-0.9-20.4c-0.3-6.1-3.3-11.6-5.1-17.4s-2-12.9,2.4-17.1c3.1-3,7.8-3.8,11.4-6.3
		c7.6-5.2,9.1-16.8,17.2-21.3c6-3.4,13.4-1.6,20.3-2.5c0.2,0,0.6-0.1,0.6-0.1V116.1z"/>
	<circle fill="#98D6DE" cx="61.4" cy="61.4" r="18.4"/>
	<path fill="#EF5329" d="M27.3,40.7L27.3,40.7c0.2-0.6,0.8-1,1.5-0.8l6.6,2c0.6,0.2,1,0.8,0.8,1.5v0c-0.2,0.6-0.8,1-1.5,0.8l-6.6-2
		C27.4,41.9,27.1,41.3,27.3,40.7z"/>
	<path fill="#5CC6C1" d="M42.3,88.3L42.3,88.3c0.6-0.1,1.2,0.3,1.3,1l1,6.8c0.1,0.6-0.3,1.2-1,1.3l0,0c-0.6,0.1-1.2-0.3-1.3-1
		l-1-6.8C41.2,89,41.6,88.4,42.3,88.3z"/>
	<path fill="#FFE98A" d="M43.6,77L43.6,77c0.2,0.6-0.1,1.3-0.7,1.5l-6.5,2.3c-0.6,0.2-1.3-0.1-1.5-0.7l0,0c-0.2-0.6,0.1-1.3,0.7-1.5
		l6.5-2.3C42.7,76.1,43.4,76.4,43.6,77z"/>
	<path fill="#FFFFFF" d="M29.3,71.1L29.3,71.1c0.4,0.5,0.3,1.2-0.2,1.6l-5.5,4.2c-0.5,0.4-1.2,0.3-1.6-0.2h0
		c-0.4-0.5-0.3-1.2,0.2-1.6l5.5-4.2C28.2,70.5,28.9,70.6,29.3,71.1z"/>
	<path fill="#EF5329" d="M84.3,87.7L84.3,87.7c-0.2,0.6-0.8,1-1.4,0.9l-6.7-1.6c-0.6-0.2-1-0.8-0.9-1.4v0c0.2-0.6,0.8-1,1.4-0.9
		l6.7,1.6C84.1,86.4,84.5,87.1,84.3,87.7z"/>
	<path fill="#FFFFFF" d="M97,85.8L97,85.8c0.6,0.2,1,0.8,0.8,1.5l-2,6.6c-0.2,0.6-0.8,1-1.5,0.8h0c-0.6-0.2-1-0.8-0.8-1.5l2-6.6
		C95.8,86,96.4,85.6,97,85.8z"/>
	<path fill="#FFFFFF" d="M63.1,91.2L63.1,91.2c-0.4,0.5-1.1,0.6-1.6,0.2L56.1,87c-0.5-0.4-0.6-1.1-0.2-1.6l0,0
		c0.4-0.5,1.1-0.6,1.6-0.2l5.4,4.4C63.4,89.9,63.5,90.7,63.1,91.2z"/>
	<path fill="#5CC6C1" d="M96.5,75.4L96.5,75.4c0.3,0.6,0,1.3-0.6,1.5l-6.4,2.7c-0.6,0.3-1.3,0-1.5-0.6l0,0c-0.3-0.6,0-1.3,0.6-1.5
		l6.4-2.7C95.6,74.5,96.3,74.8,96.5,75.4z"/>
	<path fill="#FFFFFF" d="M92.9,67.7L92.9,67.7c-0.2,0.6-0.8,1-1.5,0.8l-6.6-2c-0.6-0.2-1-0.8-0.8-1.5h0c0.2-0.6,0.8-1,1.5-0.8l6.6,2
		C92.8,66.4,93.1,67.1,92.9,67.7z"/>
	<path fill="#5CC6C1" d="M76.6,97L76.6,97c0.2,0.6-0.1,1.3-0.7,1.5l-6.5,2.4c-0.6,0.2-1.3-0.1-1.5-0.7l0,0c-0.2-0.6,0.1-1.3,0.7-1.5
		l6.5-2.4C75.7,96.1,76.4,96.4,76.6,97z"/>
	<path fill="#FFE98A" d="M56.6,105.9L56.6,105.9c-0.6,0.3-1.3,0-1.5-0.6L52.2,99c-0.3-0.6,0-1.3,0.6-1.5v0c0.6-0.3,1.3,0,1.5,0.6
		l2.8,6.3C57.4,104.9,57.1,105.6,56.6,105.9z"/>
	<path fill="#EF5329" d="M94.4,40.9L94.4,40.9c0-0.6,0.6-1.2,1.2-1.1l6.9,0.2c0.6,0,1.2,0.6,1.1,1.2v0c0,0.6-0.6,1.2-1.2,1.1
		l-6.9-0.2C94.9,42.1,94.4,41.6,94.4,40.9z"/>
	<path fill="#FFFFFF" d="M78.9,37.6L78.9,37.6c-0.3-0.6-0.2-1.3,0.4-1.6l5.9-3.6c0.6-0.3,1.3-0.2,1.6,0.4l0,0
		c0.3,0.6,0.2,1.3-0.4,1.6L80.5,38C79.9,38.3,79.2,38.1,78.9,37.6z"/>
	<path fill="#FFE98A" d="M94.7,60.2L94.7,60.2c-0.2-0.6,0.1-1.3,0.7-1.5l6.5-2.4c0.6-0.2,1.3,0.1,1.5,0.7l0,0
		c0.2,0.6-0.1,1.3-0.7,1.5l-6.5,2.4C95.6,61.1,94.9,60.8,94.7,60.2z"/>
	<path fill="#5CC6C1" d="M86.1,46.9L86.1,46.9c0.4-0.5,1.1-0.6,1.6-0.2l5.5,4.2c0.5,0.4,0.6,1.1,0.2,1.6l0,0
		c-0.4,0.5-1.1,0.6-1.6,0.2l-5.5-4.2C85.8,48.2,85.7,47.4,86.1,46.9z"/>
	<path fill="#5CC6C1" d="M17.1,57L17.1,57c-0.4-0.5-0.3-1.2,0.2-1.6l5.4-4.3c0.5-0.4,1.2-0.3,1.6,0.2l0,0c0.4,0.5,0.3,1.2-0.2,1.6
		l-5.4,4.3C18.2,57.6,17.5,57.5,17.1,57z"/>
	<path fill="#5CC6C1" d="M29.7,59.2L29.7,59.2c0.3-0.6,1-0.8,1.6-0.5l6.2,3.2c0.6,0.3,0.8,1,0.5,1.6v0c-0.3,0.6-1,0.8-1.6,0.5
		l-6.2-3.2C29.6,60.5,29.4,59.8,29.7,59.2z"/>
	<path fill="#FFE98A" d="M42.3,17.1L42.3,17.1c0.6,0.3,0.8,1,0.5,1.6l-3,6.2c-0.3,0.6-1,0.8-1.6,0.5l0,0c-0.6-0.3-0.8-1-0.5-1.6
		l3-6.2C41,17,41.7,16.8,42.3,17.1z"/>
	<path fill="#FFFFFF" d="M59.3,28L59.3,28c-0.3,0.5-1.1,0.7-1.6,0.4l-5.8-3.7c-0.5-0.3-0.7-1.1-0.4-1.6v0c0.3-0.5,1.1-0.7,1.6-0.4
		l5.8,3.7C59.5,26.8,59.6,27.5,59.3,28z"/>
	<path fill="#5CC6C1" d="M51.5,39.5L51.5,39.5c-0.5,0.4-1.2,0.4-1.6-0.1l-4.5-5.2c-0.4-0.5-0.4-1.2,0.1-1.6h0
		c0.5-0.4,1.2-0.4,1.6,0.1l4.5,5.2C52.1,38.3,52,39.1,51.5,39.5z"/>
	<path fill="#EF5329" d="M60.2,14.3L60.2,14.3c-0.1-0.6,0.4-1.2,1-1.3l6.9-0.8c0.6-0.1,1.2,0.4,1.3,1v0c0.1,0.6-0.4,1.2-1,1.3
		l-6.9,0.8C60.9,15.4,60.3,15,60.2,14.3z"/>
	<path fill="#5CC6C1" d="M73.7,20.9L73.7,20.9c0.1-0.6,0.7-1,1.4-0.9l6.8,1.4c0.6,0.1,1,0.7,0.9,1.4v0c-0.1,0.6-0.7,1-1.4,0.9
		l-6.8-1.4C74,22.2,73.6,21.5,73.7,20.9z"/>
	<path fill="#FFE98A" d="M67.1,29.3L67.1,29.3c0.6-0.3,1.3-0.1,1.6,0.4l3.5,6c0.3,0.6,0.1,1.3-0.4,1.6l0,0c-0.6,0.3-1.3,0.1-1.6-0.4
		l-3.5-6C66.4,30.4,66.6,29.6,67.1,29.3z"/>
	<path fill="#EF5329" d="M24,84.9L24,84.9c0.5-0.4,1.2-0.4,1.7,0l4.8,5c0.4,0.5,0.4,1.2,0,1.7l0,0c-0.5,0.4-1.2,0.4-1.7,0l-4.8-5
		C23.5,86.1,23.5,85.4,24,84.9z"/>
</g>
</svg>
