<?xml version="1.0" encoding="utf-8"?>
<!-- Generator: Adobe Illustrator 19.1.0, SVG Export Plug-In . SVG Version: 6.00 Build 0)  -->
<svg version="1.1" id="Layer_1" xmlns="http://www.w3.org/2000/svg" xmlns:xlink="http://www.w3.org/1999/xlink" x="0px" y="0px"
	 viewBox="0 0 50 50" enable-background="new 0 0 50 50" xml:space="preserve">
<g>
	<path fill="#EF5329" d="M26.2,50c-0.8,0-1.6,0-2.4,0c-0.2,0-0.3-0.1-0.5-0.1c-1.1-0.1-2.2-0.2-3.2-0.4C6.7,46.7-1.9,34.2,0.4,20.7
		C2.6,7.4,15.6-2.4,30,0.5c13.3,2.7,21.8,15.2,19.6,28.6c-1.7,10.6-10.3,19-20.8,20.5C28,49.8,27.1,49.9,26.2,50z M27.4,41.1
		c0-5.4,0-10.7,0-16.1c1.5,0,3,0,4.5,0c0.2-1.8,0.3-3.5,0.5-5.4c-1.7,0-3.3,0-4.9,0c0-1.3,0-2.4,0-3.6c0-0.8,0.3-1.1,1.1-1.2
		c0.8-0.1,1.7,0,2.5,0c0.4,0,0.8,0,1.2,0c0-1.9,0-3.7,0-5.5C31.2,9,26.2,9.1,25,9.5c-2.4,0.7-3.9,2.4-4,5c-0.1,1.4,0,2.8,0,4.2
		c0,0.3,0,0.6,0,0.9c-1.2,0-2.2,0-3.3,0c0,1.8,0,3.6,0,5.4c1.1,0,2.2,0,3.3,0c0,5.4,0,10.7,0,16C23.2,41.1,25.3,41.1,27.4,41.1z"/>
</g>
</svg>
