<?xml version="1.0" encoding="utf-8"?>
<!-- Generator: Adobe Illustrator 19.1.0, SVG Export Plug-In . SVG Version: 6.00 Build 0)  -->
<svg version="1.1" id="Layer_1" xmlns="http://www.w3.org/2000/svg" xmlns:xlink="http://www.w3.org/1999/xlink" x="0px" y="0px"
	 viewBox="0 0 1153.3 196.4" enable-background="new 0 0 1153.3 196.4" xml:space="preserve">
<g>
	<path fill="#FFFFFF" d="M878.5,32.2l16.6-15.7c0,0-10.9-11.7-16-9c-4.6,2.2-10.1,16.1-10.1,16.1L878.5,32.2z"/>
	<path fill="#FFFFFF" d="M879,17.4c0,0-13.4-4.7-18.7,0.3c-5.4,5.1-6.1,24.9-6.1,24.9l5.4,7.4l26.7-25.2L879,17.4z"/>
	<path fill="none" stroke="#98D6DE" stroke-width="2" stroke-miterlimit="10" d="M894.9,16.3c0,0-5.4-8.5-13.9-8.5
		c-8.5,0-12.9,19.3-12.9,19.3"/>
	<path fill="#EFEFEF" d="M878.5,32.2l16.6-15.7c0,0,11,11.5,8,16.5c-2.4,4.5-16.8,9.1-16.8,9.1L878.5,32.2z"/>
	<path fill="#EFEFEF" d="M893.3,32.6c0,0,3.9,13.6-1.5,18.7c-5.4,5.1-25.2,4.6-25.2,4.6l-7-5.8l26.7-25.2L893.3,32.6z"/>
	<path fill="none" stroke="#98D6DE" stroke-width="2" stroke-miterlimit="10" d="M883,42.8c0,0,19.6-3.2,20-11.7s-7.7-14.4-7.7-14.4
		l-0.6-0.7"/>
	<path fill="#D83F25" d="M862.3,47.5l-7.2,6.8l1.3,1.4c0,0,6.5,1.7,9.6,0.4S862.3,47.5,862.3,47.5z"/>
	<path fill="#EF5329" d="M862.3,47.5l-7.2,6.8l-1.5-1.6c0,0-1.2-6.4,0.3-9.5C855.4,40,862.3,47.5,862.3,47.5z"/>
	<path fill="#EFEFEF" d="M858.5,51.1l-88.4,83.2l4.1,4.4c0,0,42.6-18.1,74.1-42.9S858.5,51.1,858.5,51.1z"/>
	<path fill="#FFFFFF" d="M858.5,51.1l-88.4,83.2l-4-4.3c0,0,20.6-41.5,47.3-71.5S858.5,51.1,858.5,51.1z"/>
	<path fill="#A8A8A8" d="M770.1,134.3l-8.5,8c0,0,1.4,1.5,2,1.6c0.7-0.3,10.2-5.6,10.2-5.6L770.1,134.3z"/>
	<path fill="#C6C6C6" d="M769,135.4l3.5-3.3c0,0,5.5,5.4,4.4,8.1C775.9,142.8,769,135.4,769,135.4z"/>
	<path fill="#BABABA" d="M770.1,134.3l-8.5,8c0,0-1.2-1.3-1.2-1.9c0.3-0.7,6.4-9.6,6.4-9.6L770.1,134.3z"/>
	<path fill="#D3D3D3" d="M769,135.4l3.5-3.3c0,0-5.1-5.8-7.8-4.9S769,135.4,769,135.4z"/>
</g>
<g>
	<g>
		<path fill="#EF5329" d="M635.4,149.5L560,58c0,0-19,13.9-9.1,38c6.3,15.5,32.3,43,41.2,49.1c7.5,6.5,21.6,22.2,21.6,22.2
			L635.4,149.5z"/>
		<path fill="#D64A29" d="M626.1,69c-2.7-1.1-8.5-0.3-9,4.8s5.3,23.2,3,22.6c-4.9-1.2-14.5-30.2-23.8-37.3c-21.9-17.2-36.3-1-36.3-1
			l75.4,91.8l19.7-16.2c0,0-9.6-23.8-10.6-27.8c-1.1-4-7.5-15.8-9.5-23.6S628.8,70.1,626.1,69z"/>
	</g>
	<defs>
		<filter id="Adobe_OpacityMaskFilter" filterUnits="userSpaceOnUse" x="548.1" y="51.2" width="107" height="116.2">
			<feColorMatrix  type="matrix" values="1 0 0 0 0  0 1 0 0 0  0 0 1 0 0  0 0 0 1 0"/>
		</filter>
	</defs>
	<mask maskUnits="userSpaceOnUse" x="548.1" y="51.2" width="107" height="116.2" id="SVGID_2_">
		<g filter="url(#Adobe_OpacityMaskFilter)">
			<g>
				<g>
					<line fill="none" stroke="#FFFFFF" stroke-width="2" stroke-miterlimit="10" x1="556.3" y1="47.1" x2="566.8" y2="194.7"/>
					<line fill="none" stroke="#FFFFFF" stroke-width="2" stroke-miterlimit="10" x1="572.6" y1="35.9" x2="584.9" y2="208.1"/>
					<line fill="none" stroke="#FFFFFF" stroke-width="2" stroke-miterlimit="10" x1="589.3" y1="28.1" x2="602.3" y2="210.7"/>
					<line fill="none" stroke="#FFFFFF" stroke-width="2" stroke-miterlimit="10" x1="606.1" y1="23.6" x2="619.5" y2="211.9"/>
					<line fill="none" stroke="#FFFFFF" stroke-width="2" stroke-miterlimit="10" x1="623.3" y1="23.5" x2="636.7" y2="211.6"/>
					<line fill="none" stroke="#FFFFFF" stroke-width="2" stroke-miterlimit="10" x1="669.6" y1="198.6" x2="657.5" y2="28.6"/>
					<line fill="none" stroke="#FFFFFF" stroke-width="2" stroke-miterlimit="10" x1="653.4" y1="209" x2="640.2" y2="23.6"/>
					<line fill="none" stroke="#FFFFFF" stroke-width="2" stroke-miterlimit="10" x1="686.4" y1="187.2" x2="676" y2="40.7"/>
				</g>
				<g>
					<line fill="none" stroke="#FFFFFF" stroke-width="2" stroke-miterlimit="10" x1="691.1" y1="55.4" x2="543.5" y2="65.9"/>
					<line fill="none" stroke="#FFFFFF" stroke-width="2" stroke-miterlimit="10" x1="702.3" y1="71.6" x2="530.1" y2="83.9"/>
					<line fill="none" stroke="#FFFFFF" stroke-width="2" stroke-miterlimit="10" x1="710.1" y1="88.3" x2="527.5" y2="101.3"/>
					<line fill="none" stroke="#FFFFFF" stroke-width="2" stroke-miterlimit="10" x1="714.6" y1="105.1" x2="526.3" y2="118.5"/>
					<line fill="none" stroke="#FFFFFF" stroke-width="2" stroke-miterlimit="10" x1="714.7" y1="122.3" x2="526.6" y2="135.7"/>
					<line fill="none" stroke="#FFFFFF" stroke-width="2" stroke-miterlimit="10" x1="539.6" y1="168.7" x2="709.6" y2="156.6"/>
					<line fill="none" stroke="#FFFFFF" stroke-width="2" stroke-miterlimit="10" x1="529.2" y1="152.4" x2="714.6" y2="139.2"/>
					<line fill="none" stroke="#FFFFFF" stroke-width="2" stroke-miterlimit="10" x1="551" y1="185.5" x2="697.5" y2="175"/>
				</g>
			</g>
		</g>
	</mask>
	<g mask="url(#SVGID_2_)">
		<path fill="#FFFFFF" d="M635.4,149.5L560,58c0,0-19,13.9-9.1,38c6.3,15.5,32.3,43,41.2,49.1c7.5,6.5,21.6,22.2,21.6,22.2
			L635.4,149.5z"/>
		<path fill="#FFFFFF" d="M626.1,69c-2.7-1.1-8.5-0.3-9,4.8s5.3,23.2,3,22.6c-4.9-1.2-14.5-30.2-23.8-37.3c-21.9-17.2-36.3-1-36.3-1
			l75.4,91.8l19.7-16.2c0,0-9.6-23.8-10.6-27.8c-1.1-4-7.5-15.8-9.5-23.6S628.8,70.1,626.1,69z"/>
	</g>
	<path fill="none" stroke="#EF5329" stroke-width="5" stroke-miterlimit="10" d="M613.7,167.4l1.8,7.3c0,0,1.2,6.5-2.9,5.9
		c-4-0.6-2.2-6.1-2.2-6.1L613.7,167.4z"/>
</g>
<g>
	<path fill="#BDD2DB" d="M378.4,103.3l-6.1-3.7c-2.1-1.3-4.8-0.6-6.1,1.5l-6.9,11.2c-1.3,2.1-0.6,4.8,1.5,6.1l6.1,3.7"/>
	<path fill="#AEC6CE" d="M378.3,103.2l6.1,3.7c2.1,1.3,2.7,4,1.5,6.1l-6.9,11.2c-1.3,2.1-4,2.7-6.1,1.5l-6.1-3.7"/>
	<g>
		<path fill="#BDD2DB" d="M375.1,108.8c-21.9-13.3-28.8-41.9-15.4-63.8c12.5-20.5,38.4-27.8,59.6-17.7l7.7-3.5"/>
		<path fill="#D3E9F2" d="M377.1,105.7c-20.3-12.4-26.7-38.8-14.3-59.1c11.6-19,35.5-25.8,55.2-16.4l7.1-3.3"/>
		<path fill="#FFFFFF" d="M380.2,100.4c-17.4-10.6-22.9-33.3-12.3-50.7c10.6-17.4,33.3-22.9,50.7-12.3"/>
		<path fill="#AEC6CE" d="M375,108.8c21.9,13.3,50.4,6.4,63.8-15.4c12.5-20.5,7.2-46.8-11.5-61.1l-0.4-8.4"/>
		<path fill="#CEE4EA" d="M376.7,105.9c20.3,12.4,46.7,6,59.1-14.3c11.6-19,6.7-43.4-10.6-56.6l-0.2-8"/>
		<path fill="#F5F6F7" d="M380.1,100.4c17.4,10.6,40.1,5.1,50.7-12.3c10.6-17.4,5.1-40.1-12.3-50.7"/>
	</g>
	<path fill="none" stroke="#DFE9ED" stroke-width="2" stroke-linecap="round" stroke-miterlimit="10" d="M421.8,46.3
		c-1.8-1.8-3.8-3.4-6.1-4.8c-14.5-8.8-33.4-4.3-42.2,10.2c-4,6.5-5.2,13.9-4.1,20.9"/>
	<path fill="none" stroke="#DFE9ED" stroke-width="2" stroke-linecap="round" stroke-miterlimit="10" d="M427.5,74.2
		c-0.6,3.3-1.8,6.6-3.6,9.6c-5.7,9.3-15.9,14-26.1,13"/>
	<path fill="none" stroke="#DFE9ED" stroke-linecap="round" stroke-miterlimit="10" d="M376.6,83.2c-4.8-8.4-5-19.1,0.4-28
		c3.9-6.4,10.1-10.7,16.9-12.4"/>
</g>
<g>
	<path fill="#DB8875" d="M240.8,93.3c-6.8-1.5-11.5-6.9-9.5-16.3s10.3-21.1,17.1-19.6"/>
	<path fill="#CE7D6F" d="M248.4,57.4c6.8,1.4,9.7,15.5,7.7,24.9c-2,9.4-8.5,12.5-15.3,11.1L248.4,57.4z"/>
	
		<ellipse transform="matrix(0.9775 -0.2111 0.2111 0.9775 -8.7443 54.7738)" fill="#FFFFFF" cx="252.2" cy="68.4" rx="1.2" ry="2.2"/>
	<path fill="#DB8875" d="M207,109.6c-0.8,6.9-5.9,12-15.4,10.9c-9.6-1.2-21.9-8.4-21-15.3"/>
	<path fill="#CE7D6F" d="M170.6,105.1c0.8-6.9,14.5-11,24.1-9.8c9.6,1.2,13.2,7.4,12.4,14.3L170.6,105.1z"/>
	
		<ellipse transform="matrix(-0.2966 -0.955 0.955 -0.2966 138.966 303.1094)" fill="#FFFFFF" cx="181.1" cy="100.4" rx="1.2" ry="2.2"/>
	<path fill="#DB8875" d="M207.9,51.2c3.9,5.8,3.4,13-4.7,18.3s-22.1,7.8-25.9,2"/>
	<path fill="#CE7D6F" d="M177.3,71.5c-3.8-5.8,3.9-17.8,12-23.1s14.8-2.9,18.7,2.8L177.3,71.5z"/>
	
		<ellipse transform="matrix(-0.8455 -0.5339 0.5339 -0.8455 303.7131 209.9382)" fill="#FFFFFF" cx="182.2" cy="61" rx="1.2" ry="2.2"/>
</g>
</svg>
