<?xml version="1.0" encoding="utf-8"?>
<!-- Generator: Adobe Illustrator 19.1.0, SVG Export Plug-In . SVG Version: 6.00 Build 0)  -->
<svg version="1.1" id="Layer_1" xmlns="http://www.w3.org/2000/svg" xmlns:xlink="http://www.w3.org/1999/xlink" x="0px" y="0px"
	 viewBox="0 0 1153.3 231.3" enable-background="new 0 0 1153.3 231.3" xml:space="preserve">
<g>
	<path fill="#DB8875" d="M715.3,99.1c-6.6-2.4-10.4-8.4-7.1-17.5c3.3-9,13.1-19.4,19.7-17"/>
	<path fill="#CE7D6F" d="M727.9,64.6c6.5,2.4,7.4,16.6,4.1,25.7c-3.3,9-10.2,11.2-16.7,8.8L727.9,64.6z"/>
	
		<ellipse transform="matrix(0.9973 -7.292087e-02 7.292087e-02 0.9973 -3.597 53.4417)" fill="#FFFFFF" cx="730.1" cy="76" rx="1.2" ry="2.2"/>
	<path fill="#DB8875" d="M679.6,110.5c-1.8,6.8-7.5,11.1-16.8,8.6s-20.5-11.3-18.7-18.1"/>
	<path fill="#CE7D6F" d="M644.1,101c1.8-6.7,15.9-8.9,25.2-6.4c9.3,2.5,12,9.2,10.3,15.8L644.1,101z"/>
	
		<ellipse transform="matrix(-0.1607 -0.987 0.987 -0.1607 664.0021 760.2224)" fill="#FFFFFF" cx="655.2" cy="97.8" rx="1.2" ry="2.2"/>
	<path fill="#DB8875" d="M688.6,52.8c3,6.3,1.5,13.3-7.2,17.5c-8.7,4.2-23,4.7-26-1.6"/>
	<path fill="#CE7D6F" d="M655.4,68.7c-3-6.2,6.4-17.1,15.1-21.2s15.1-0.8,18.1,5.4L655.4,68.7z"/>
	
		<ellipse transform="matrix(-0.763 -0.6464 0.6464 -0.763 1128.5962 531.8218)" fill="#FFFFFF" cx="661.8" cy="59" rx="1.2" ry="2.2"/>
	<path fill="#DB8875" d="M762.6,81.1c-5.9-3.7-8.4-10.4-3.3-18.6c5.1-8.2,16.8-16.3,22.8-12.6"/>
	<path fill="#CE7D6F" d="M782.1,49.9c5.9,3.7,3.8,17.8-1.3,26s-12.3,8.8-18.1,5.2L782.1,49.9z"/>
	
		<ellipse transform="matrix(0.9909 0.1349 -0.1349 0.9909 15.4378 -104.8977)" fill="#FFFFFF" cx="781.9" cy="61.5" rx="1.2" ry="2.2"/>
	<path fill="#DB8875" d="M789.2,29.5c-2-6.7,0.5-13.4,9.7-16.2c9.2-2.8,23.4-1.2,25.4,5.5"/>
	<path fill="#CE7D6F" d="M824.3,18.8c2,6.6-8.8,15.9-18.1,18.7c-9.2,2.8-15.1-1.4-17.1-8L824.3,18.8z"/>
	
		<ellipse transform="matrix(0.658 0.753 -0.753 0.658 299.9164 -605.5317)" fill="#FFFFFF" cx="816.6" cy="27.4" rx="1.2" ry="2.2"/>
	<path fill="#DB8875" d="M739.1,48.8c-7-0.1-12.6-4.6-12.4-14.2s6-22.6,13-22.5"/>
	<path fill="#CE7D6F" d="M739.7,12c6.9,0.1,12.4,13.3,12.3,22.9s-6,13.9-12.9,13.8L739.7,12z"/>
	
		<ellipse transform="matrix(0.919 -0.3943 0.3943 0.919 51.7193 295.7916)" fill="#FFFFFF" cx="745.5" cy="22.1" rx="1.2" ry="2.2"/>
</g>
<g>
	<path fill="#E09F65" d="M530.8,47.5c15.1-14.3,15.3-26.3,6.8-35.3l-29.7,28.1L495,52.5l-77.7,73.6c1.7,1.8,6.7,1.7,10.4-1.8
		c0,0,64.9-63.4,70.3-65.6C506.2,54.5,515.7,61.7,530.8,47.5z"/>
	<path fill="#EFB173" d="M501.9,17C517,2.7,529,3.1,537.6,12.1l-29.7,28.1L495,52.5l-77.7,73.6c-1.7-1.7-1.4-6.8,2.4-10.3
		c0,0,66.9-61.4,69.3-66.6C493.6,41.2,486.8,31.3,501.9,17z"/>
	<path fill="#E0A370" d="M500.4,47.4c-6.4-6.7-3.2-20.4,4.9-28.1s21.9-10.1,28.3-3.4L500.4,47.4z"/>
	<path fill="#D39466" d="M500.4,47.4c6.4,6.7,20.2,4.3,28.3-3.3c8.1-7.6,11.3-21.3,4.9-28.1L500.4,47.4z"/>
</g>
<g>
	<path fill="#80839B" d="M927.4,206.3c-31.7,0-57.4-25.7-57.4-57.4s25.7-57.4,57.4-57.4"/>
	<path fill="#797D93" d="M927,206.3c32,0,57.4-25.7,57.4-57.4S959,91.6,927,91.6V206.3z"/>
	<path fill="#5A5D72" d="M927.1,96.4c29,0,52.5,23.5,52.5,52.5s-23.5,52.5-52.5,52.5"/>
	<path fill="#62647D" d="M927,96.4c-28,0-52.5,23.5-52.5,52.5s24.5,52.5,52.5,52.5V96.4z"/>
	<path opacity="0.7" fill="#FFFECA" d="M927,188.7c-22,0-39.8-17.8-39.8-39.8s17.8-39.8,39.8-39.8"/>
	<path opacity="0.7" fill="#F4F1BE" d="M927,109.1c23,0,39.8,17.8,39.8,39.8S950,188.7,927,188.7V109.1z"/>
	<path opacity="0.6" fill="#FFFFFF" d="M947.7,120.5c2.3,3.4,4.5,6.9,6.8,10.3c1.7,2.6,3.5,5.3,4.7,8.3c3.2,8,1.2,17.8-4.8,24.1
		c-3.5,3.6-8,5.9-12.5,8.1c-7.3,3.5-15,6.6-23.1,6.5c-4,0-8.1-0.9-11.5-3c-6-3.6-9.3-10.7-9.8-17.7c-0.5-7,1.6-13.9,4.3-20.3
		c2.1-5,5.1-10.1,10.2-12c4.3-1.6,9.1-0.5,13.7-0.5c4.3,0,5.9-1.1,9.7-3.1c1.8-0.9,3.5-2.1,5.4-2.6S946.5,118.9,947.7,120.5"/>
	<circle fill="#FFE566" cx="919.2" cy="158.5" r="12"/>
	<circle fill="#FFFFFF" cx="913.3" cy="153.7" r="1.6"/>
</g>
<g>
	<path fill="#9D9D9E" stroke="#757575" stroke-width="3" stroke-miterlimit="10" d="M186.2,48l105.7-16.2c9-1.4,17.3,4.8,18.7,13.7
		l17.7,115.8c1.4,9-4.8,17.3-13.7,18.7l-105.7,16.2"/>
	<path fill="#AAAAAA" stroke="#757575" stroke-width="3" stroke-miterlimit="10" d="M208.9,196.2l-105.7,16.2
		c-9,1.4-17.3-4.8-18.7-13.7L66.8,82.8c-1.4-9,4.8-17.3,13.7-18.7L186.2,48"/>
	<g>
		<g>
			<path fill="#E2E2E2" d="M99.8,78.9c-2.8,0.4-4.7,3-4.3,5.8c0.2,1.2,1.3,2.6,1.2,2.9c-0.1,0.3-0.3,0.4-0.6,0.7l-6,4.7
				c-1.2,0.9-1.4,2.6-0.5,3.8v0c0.9,1.2,2.6,1.4,3.8,0.5l3.2-2.6l0.5,3c0.1,0.5-1.9,9.6-1.9,9.6l-0.6,0.1c-1.1,0.2-1.9,1.4-1.7,2.5
				c0.2,1.1,1.2,2,2.4,1.9l2.6-0.4c0,0,0-0.1,0.1-0.1c1.1-0.1,2-0.9,2.3-2c0,0,2.6-7.4,3-7.5"/>
			<path fill="#CDCFD3" d="M99.8,78.9c2.8-0.4,5.4,1.5,5.8,4.3c0.2,1.2-0.5,2.8-0.3,3.1c0.1,0.3,0.4,0.3,0.8,0.5l7.1,2.7
				c1.4,0.5,2.1,2,1.7,3.4v0c-0.5,1.4-2.1,2.2-3.5,1.7l-3.9-1.5l0.5,3c0.1,0.5,4.9,8.6,4.9,8.6l0.6-0.1c1.1-0.2,2.2,0.7,2.4,1.9
				c0.2,1.1-0.6,2.3-1.7,2.5l-2.6,0.4c0,0-0.1-0.1-0.1-0.1c-1.1,0.2-2.2-0.3-2.8-1.2c0,0-4.7-6.3-5.1-6.3"/>
		</g>
		<g>
			<path fill="#E2E2E2" d="M135.4,73.5c-2.8,0.4-4.7,3-4.3,5.8c0.2,1.2,1.3,2.6,1.2,2.9c-0.1,0.3-0.3,0.4-0.6,0.7l-6,4.7
				c-1.2,0.9-1.4,2.6-0.5,3.8v0c0.9,1.2,2.5,1.5,3.7,0.6l3.1-2.6l0.5,3c0.1,0.5-1.7,9.6-1.7,9.6l-0.6,0.1c-1.1,0.2-1.9,1.4-1.7,2.5
				c0.2,1.1,1.2,2,2.4,1.9l2.6-0.4c0,0,0-0.1,0.1-0.1c1.1-0.1,2-0.9,2.3-2c0,0,2.6-7.4,3-7.5"/>
			<path fill="#CDCFD3" d="M135.4,73.5c2.8-0.4,5.4,1.5,5.8,4.3c0.2,1.2-0.5,2.8-0.3,3.1c0.1,0.3,0.4,0.3,0.8,0.5l7.1,2.7
				c1.4,0.5,2.1,2,1.7,3.4v0c-0.5,1.4-2.3,2.2-3.7,1.7l-4-1.5l0.5,3c0.1,0.5,5.2,8.5,5.2,8.5L149,99c1.1-0.2,2.2,0.7,2.4,1.9
				c0.2,1.1-0.6,2.3-1.7,2.5l-2.6,0.4c0,0-0.1-0.1-0.1-0.1c-1.1,0.2-2.2-0.3-2.8-1.2c0,0-4.7-6.3-5.1-6.3"/>
		</g>
		<g>
			<path fill="#E2E2E2" d="M171.1,68c-2.8,0.4-4.7,3-4.3,5.8c0.2,1.2,1.3,2.6,1.2,2.9s-0.3,0.4-0.6,0.7l-6,4.7
				c-1.2,0.9-1.4,2.6-0.5,3.8v0c0.9,1.2,2.7,1.4,3.9,0.5l3.3-2.6l0.5,3c0.1,0.5-2.1,9.6-2.1,9.6l-0.6,0.1c-1.1,0.2-1.9,1.4-1.7,2.5
				c0.2,1.1,1.2,2,2.4,1.9l2.6-0.4c0,0,0-0.1,0.1-0.1c1.1-0.1,2-0.9,2.3-2c0,0,2.6-7.4,3-7.5"/>
			<path fill="#CDCFD3" d="M171.1,68c2.8-0.4,5.4,1.5,5.8,4.3c0.2,1.2-0.5,2.8-0.3,3.1c0.1,0.3,0.4,0.3,0.8,0.5l7.1,2.7
				c1.4,0.5,2.1,2,1.7,3.4v0c-0.5,1.4-2,2.1-3.5,1.7l-3.8-1.5l0.5,3c0.1,0.5,4.7,8.6,4.7,8.6l0.6-0.1c1.1-0.2,2.2,0.7,2.4,1.9
				c0.2,1.1-0.6,2.3-1.7,2.5l-2.6,0.4c0,0-0.1-0.1-0.1-0.1c-1.1,0.2-2.2-0.3-2.8-1.2c0,0-4.7-6.3-5.1-6.3"/>
		</g>
		<g>
			<path fill="#E2E2E2" d="M206.7,62.6c-2.8,0.4-4.7,3-4.3,5.8c0.2,1.2,1.3,2.6,1.2,2.9c-0.1,0.3-0.3,0.4-0.6,0.7l-6,4.7
				c-1.2,0.9-1.4,2.6-0.5,3.8l0,0c0.9,1.2,2.5,1.4,3.7,0.6l3.1-2.6l0.5,3c0.1,0.5-1.8,9.6-1.8,9.6l-0.6,0.1
				c-1.1,0.2-1.9,1.4-1.7,2.5c0.2,1.1,1.2,2,2.4,1.9l2.6-0.4c0,0,0-0.1,0.1-0.1c1.1-0.1,2-0.9,2.3-2c0,0,2.6-7.4,3-7.5"/>
			<path fill="#CDCFD3" d="M206.7,62.6c2.8-0.4,5.4,1.5,5.8,4.3c0.2,1.2-0.5,2.8-0.3,3.1c0.1,0.3,0.4,0.3,0.8,0.5l7.1,2.7
				c1.4,0.5,2.1,2,1.7,3.4l0,0c-0.5,1.4-1.8,2.1-3.2,1.6l-3.6-1.6l0.5,3c0.1,0.5,4.3,8.7,4.3,8.7l0.6-0.1c1.1-0.2,2.2,0.7,2.4,1.9
				c0.2,1.1-0.6,2.3-1.7,2.5l-2.6,0.4c0,0-0.1-0.1-0.1-0.1c-1.1,0.2-2.2-0.3-2.8-1.2c0,0-4.7-6.3-5.1-6.3"/>
		</g>
		<g>
			<path fill="#E2E2E2" d="M242.4,57.5c-2.8,0.4-4.7,3-4.3,5.8c0.2,1.2,1.3,2.6,1.2,2.9s-0.3,0.4-0.6,0.7l-6,4.7
				c-1.2,0.9-1.4,2.6-0.5,3.8v0c0.9,1.2,2.8,1.4,4,0.5l3.4-2.6l0.5,3c0.1,0.5-2.2,10-2.2,10l-0.6,0.1c-1.1,0.2-1.9,1-1.8,2.1
				c0.2,1.1,1.2,1.7,2.3,1.5l2.6-0.4c0,0,0.1,0.1,0.1,0c1.1-0.1,2-0.8,2.3-1.9c0,0,2.6-7.4,3-7.5"/>
			<path fill="#CDCFD3" d="M242.4,57.5c2.8-0.4,5.4,1.5,5.8,4.3c0.2,1.2-0.5,2.8-0.3,3.1c0.1,0.3,0.4,0.3,0.8,0.5l7.1,2.7
				c1.4,0.5,2.1,2,1.7,3.4v0c-0.5,1.4-2,2.1-3.4,1.6l-3.7-1.5l0.5,3c0.1,0.5,4.6,9,4.6,9l0.6-0.1c1.1-0.2,2.1,0.4,2.3,1.5
				c0.2,1.1-0.6,1.9-1.8,2.1l-2.6,0.4c0,0-0.1,0.1-0.1,0.1c-1.1,0.2-2.2-0.2-2.8-1.1c0,0-4.7-6.3-5.1-6.2"/>
		</g>
		<g>
			<path fill="#E2E2E2" d="M278,52c-2.8,0.4-4.7,3-4.3,5.8c0.2,1.2,1.3,2.6,1.2,2.9c-0.1,0.3-0.3,0.4-0.6,0.7l-6,4.7
				c-1.2,0.9-1.4,2.6-0.5,3.8v0c0.9,1.2,2.6,1.4,3.8,0.5l3.2-2.6l0.5,3c0.1,0.5-1.9,10-1.9,10l-0.6,0.1c-1.1,0.2-1.9,1-1.8,2.1
				c0.2,1.1,1.2,1.7,2.3,1.5l2.6-0.4c0,0,0.1,0.1,0.1,0c1.1-0.1,2-0.8,2.3-1.9c0,0,2.6-7.4,3-7.5"/>
			<path fill="#CDCFD3" d="M278,52c2.8-0.4,5.4,1.5,5.8,4.3c0.2,1.2-0.5,2.8-0.3,3.1c0.1,0.3,0.4,0.3,0.8,0.5l7.1,2.7
				c1.4,0.5,2.1,2,1.7,3.4v0c-0.5,1.4-2.1,2.2-3.5,1.7l-3.9-1.5l0.5,3c0.1,0.5,4.9,8.9,4.9,8.9l0.6-0.1c1.1-0.2,2.1,0.4,2.3,1.5
				c0.2,1.1-0.6,1.9-1.8,2.1l-2.6,0.4c0,0-0.1,0.1-0.1,0.1c-1.1,0.2-2.2-0.2-2.8-1.1c0,0-4.7-6.3-5.1-6.2"/>
		</g>
	</g>
	<g>
		<g>
			<path fill="#E2E2E2" d="M106,119.8c-2.8,0.4-4.7,3-4.3,5.8c0.2,1.2,1.3,2.6,1.2,2.9c-0.1,0.3-0.3,0.4-0.6,0.7l-6,4.7
				c-1.2,0.9-1.4,2.6-0.5,3.8l0,0c0.9,1.2,2.6,1.4,3.8,0.5l3.2-2.6l0.5,3c0.1,0.5-1.9,9.8-1.9,9.8l-0.6,0.1
				c-1.1,0.2-1.9,1.4-1.7,2.5c0.2,1.1,1.2,2,2.4,1.9l2.6-0.4c0,0,0-0.2,0.1-0.2c1.1-0.1,2-0.9,2.3-2c0,0,2.6-7.5,3-7.5"/>
			<path fill="#CDCFD3" d="M106,119.8c2.8-0.4,5.4,1.5,5.8,4.3c0.2,1.2-0.5,2.8-0.3,3.1c0.1,0.3,0.4,0.3,0.8,0.5l7.1,2.7
				c1.4,0.5,2.1,2,1.7,3.4v0c-0.5,1.4-2.1,2.2-3.5,1.7l-3.9-1.5l0.5,3c0.1,0.5,4.9,8.8,4.9,8.8l0.6-0.1c1.1-0.2,2.2,0.7,2.4,1.9
				c0.2,1.1-0.6,2.3-1.7,2.5l-2.6,0.4c0,0-0.1-0.2-0.1-0.2c-1.1,0.2-2.2-0.3-2.8-1.3c0,0-4.7-6.4-5.1-6.3"/>
		</g>
		<g>
			<path fill="#E2E2E2" d="M141.7,114.4c-2.8,0.4-4.7,3-4.3,5.8c0.2,1.2,1.3,2.6,1.2,2.9s-0.3,0.4-0.6,0.7l-6,4.7
				c-1.2,0.9-1.4,2.6-0.5,3.8v0c0.9,1.2,2.5,1.5,3.7,0.6l3.1-2.6l0.5,3c0.1,0.5-1.6,9.8-1.6,9.8l-0.6,0.1c-1.1,0.2-1.9,1.4-1.7,2.5
				c0.2,1.1,1.2,2,2.4,1.9l2.6-0.4c0,0,0-0.2,0.1-0.2c1.1-0.1,2-0.9,2.3-2c0,0,2.6-7.5,3-7.5"/>
			<path fill="#CDCFD3" d="M141.7,114.4c2.8-0.4,5.4,1.5,5.8,4.3c0.2,1.2-0.5,2.8-0.3,3.1c0.1,0.3,0.4,0.3,0.8,0.5l7.1,2.7
				c1.4,0.5,2.1,2,1.7,3.4l0,0c-0.5,1.4-2.3,2.2-3.7,1.7l-4-1.5l0.5,3c0.1,0.5,5.2,8.7,5.2,8.7l0.6-0.1c1.1-0.2,2.2,0.7,2.4,1.9
				c0.2,1.1-0.6,2.3-1.7,2.5l-2.6,0.4c0,0-0.1-0.2-0.1-0.2c-1.1,0.2-2.2-0.3-2.8-1.3c0,0-4.7-6.4-5.1-6.3"/>
		</g>
		<g>
			<path fill="#E2E2E2" d="M177.3,108.9c-2.8,0.4-4.7,3-4.3,5.8c0.2,1.2,1.3,2.6,1.2,2.9c-0.1,0.3-0.3,0.4-0.6,0.7l-6,4.7
				c-1.2,0.9-1.4,2.6-0.5,3.8v0c0.9,1.2,2.7,1.4,3.9,0.5l3.3-2.6l0.5,3c0.1,0.5-2.1,9.8-2.1,9.8l-0.6,0.1c-1.1,0.2-1.9,1.4-1.7,2.5
				c0.2,1.1,1.2,2,2.4,1.9l2.6-0.4c0,0,0-0.2,0.1-0.2c1.1-0.1,2-0.9,2.3-2c0,0,2.6-7.5,3-7.5"/>
			<path fill="#CDCFD3" d="M177.3,108.9c2.8-0.4,5.4,1.5,5.8,4.3c0.2,1.2-0.5,2.8-0.3,3.1c0.1,0.3,0.4,0.3,0.8,0.5l7.1,2.7
				c1.4,0.5,2.1,2,1.7,3.4l0,0c-0.5,1.4-2,2.1-3.5,1.7l-3.8-1.5l0.5,3c0.1,0.5,4.7,8.8,4.7,8.8l0.6-0.1c1.1-0.2,2.2,0.7,2.4,1.9
				c0.2,1.1-0.6,2.3-1.7,2.5l-2.6,0.4c0,0-0.1-0.2-0.1-0.2c-1.1,0.2-2.2-0.3-2.8-1.3c0,0-4.7-6.4-5.1-6.3"/>
		</g>
		<g>
			<path fill="#E2E2E2" d="M212.9,103.5c-2.8,0.4-4.7,3-4.3,5.8c0.2,1.2,1.3,2.6,1.2,2.9c-0.1,0.3-0.3,0.4-0.6,0.7l-6,4.7
				c-1.2,0.9-1.4,2.6-0.5,3.8v0c0.9,1.2,2.5,1.4,3.7,0.6l3.1-2.6l0.5,3c0.1,0.5-1.8,9.8-1.8,9.8l-0.6,0.1c-1.1,0.2-1.9,1.4-1.7,2.5
				c0.2,1.1,1.2,2,2.4,1.9l2.6-0.4c0,0,0-0.2,0.1-0.2c1.1-0.1,2-0.9,2.3-2c0,0,2.6-7.5,3-7.5"/>
			<path fill="#CDCFD3" d="M212.9,103.5c2.8-0.4,5.4,1.5,5.8,4.3c0.2,1.2-0.5,2.8-0.3,3.1c0.1,0.3,0.4,0.3,0.8,0.5l7.1,2.7
				c1.4,0.5,2.1,2,1.7,3.4v0c-0.5,1.4-1.8,2.1-3.2,1.6l-3.6-1.6l0.5,3c0.1,0.5,4.3,8.9,4.3,8.9l0.6-0.1c1.1-0.2,2.2,0.7,2.4,1.9
				c0.2,1.1-0.6,2.3-1.7,2.5l-2.6,0.4c0,0-0.1-0.2-0.1-0.2c-1.1,0.2-2.2-0.3-2.8-1.3c0,0-4.7-6.4-5.1-6.3"/>
		</g>
		<g>
			<path fill="#E2E2E2" d="M248.6,98.4c-2.8,0.4-4.7,3-4.3,5.8c0.2,1.2,1.3,2.6,1.2,2.9c-0.1,0.3-0.3,0.4-0.6,0.7l-6,4.7
				c-1.2,0.9-1.4,2.6-0.5,3.8l0,0c0.9,1.2,2.8,1.4,4,0.5l3.4-2.6l0.5,3c0.1,0.5-2.3,9.5-2.3,9.5l-0.6,0.1c-1.1,0.2-1.9,1.4-1.7,2.5
				c0.2,1.1,1.2,2,2.4,1.9l2.6-0.4c0,0,0.1,0,0.1-0.1c1.1-0.1,2-0.9,2.3-1.9c0,0,2.6-7.4,3-7.5"/>
			<path fill="#CDCFD3" d="M248.6,98.4c2.8-0.4,5.4,1.5,5.8,4.3c0.2,1.2-0.5,2.8-0.3,3.1c0.1,0.3,0.4,0.3,0.8,0.5l7.1,2.7
				c1.4,0.5,2.1,2,1.7,3.4v0c-0.5,1.4-2,2.1-3.4,1.6l-3.7-1.5l0.5,3c0.1,0.5,4.5,8.5,4.5,8.5l0.6-0.1c1.1-0.2,2.2,0.7,2.4,1.9
				c0.2,1.1-0.6,2.3-1.7,2.5l-2.6,0.4c0,0-0.1,0-0.1,0c-1.1,0.2-2.2-0.2-2.8-1.2c0,0-4.7-6.3-5.1-6.2"/>
		</g>
		<g>
			<path fill="#E2E2E2" d="M284.3,92.9c-2.8,0.4-4.7,3-4.3,5.8c0.2,1.2,1.3,2.6,1.2,2.9c-0.1,0.3-0.3,0.4-0.6,0.7l-6,4.7
				c-1.2,0.9-1.4,2.6-0.5,3.8v0c0.9,1.2,2.6,1.4,3.8,0.5l3.2-2.6l0.5,3c0.1,0.5-2,9.5-2,9.5l-0.6,0.1c-1.1,0.2-1.9,1.4-1.7,2.5
				c0.2,1.1,1.2,2,2.4,1.9l2.6-0.4c0,0,0.1,0,0.1-0.1c1.1-0.1,2-0.9,2.3-1.9c0,0,2.6-7.4,3-7.5"/>
			<path fill="#CDCFD3" d="M284.3,92.9c2.8-0.4,5.4,1.5,5.8,4.3c0.2,1.2-0.5,2.8-0.3,3.1c0.1,0.3,0.4,0.3,0.8,0.5l7.1,2.7
				c1.4,0.5,2.1,2,1.7,3.4v0c-0.5,1.4-2.1,2.2-3.5,1.7l-3.9-1.5l0.5,3c0.1,0.5,4.8,8.4,4.8,8.4l0.6-0.1c1.1-0.2,2.2,0.7,2.4,1.9
				c0.2,1.1-0.6,2.3-1.7,2.5l-2.6,0.4c0,0-0.1,0-0.1,0c-1.1,0.2-2.2-0.2-2.8-1.2c0,0-4.7-6.3-5.1-6.2"/>
		</g>
	</g>
	<g>
		<g>
			<path fill="#E2E2E2" d="M112.4,161.1c-2.8,0.4-4.7,3-4.3,5.8c0.2,1.2,1.3,2.6,1.2,2.9c-0.1,0.3-0.3,0.4-0.6,0.7l-6,4.7
				c-1.2,0.9-1.4,2.6-0.5,3.8v0c0.9,1.2,2.6,1.4,3.8,0.5l3.2-2.6l0.5,3c0.1,0.5-1.8,10.4-1.8,10.4l-0.6,0.1c-1.1,0.2-1.9,1-1.8,2.1
				c0.2,1.1,1.2,1.7,2.3,1.5l2.6-0.4c0,0,0-0.1,0.1-0.2c1.1-0.1,2-0.9,2.3-2c0,0,2.6-7.4,3-7.5"/>
			<path fill="#CDCFD3" d="M112.4,161.1c2.8-0.4,5.4,1.5,5.8,4.3c0.2,1.2-0.5,2.8-0.3,3.1c0.1,0.3,0.4,0.3,0.8,0.5l7.1,2.7
				c1.4,0.5,2.1,2,1.7,3.4v0c-0.5,1.4-2.1,2.2-3.5,1.7l-3.9-1.5l0.5,3c0.1,0.5,5,9.3,5,9.3l0.6-0.1c1.1-0.2,2.1,0.4,2.3,1.5
				c0.2,1.1-0.6,1.9-1.8,2.1l-2.6,0.4c0,0-0.1-0.1-0.1-0.1c-1.1,0.2-2.2-0.3-2.8-1.2c0,0-4.7-6.3-5.1-6.3"/>
		</g>
		<g>
			<path fill="#E2E2E2" d="M148,155.7c-2.8,0.4-4.7,3-4.3,5.8c0.2,1.2,1.3,2.6,1.2,2.9s-0.3,0.4-0.6,0.7l-6,4.7
				c-1.2,0.9-1.4,2.6-0.5,3.8l0,0c0.9,1.2,2.5,1.5,3.7,0.6l3.1-2.6l0.5,3c0.1,0.5-1.5,10.3-1.5,10.3l-0.6,0.1
				c-1.1,0.2-1.9,1-1.8,2.1c0.2,1.1,1.2,1.7,2.3,1.5l2.6-0.4c0,0,0-0.1,0.1-0.2c1.1-0.1,2-0.9,2.3-2c0,0,2.6-7.4,3-7.5"/>
			<path fill="#CDCFD3" d="M148,155.7c2.8-0.4,5.4,1.5,5.8,4.3c0.2,1.2-0.5,2.8-0.3,3.1s0.4,0.3,0.8,0.5l7.1,2.7
				c1.4,0.5,2.1,2,1.7,3.4v0c-0.5,1.4-2.3,2.2-3.7,1.7l-4-1.5l0.5,3c0.1,0.5,5.3,9.3,5.3,9.3l0.6-0.1c1.1-0.2,2.1,0.4,2.3,1.5
				c0.2,1.1-0.6,1.9-1.8,2.1l-2.6,0.4c0,0-0.1-0.1-0.1-0.1c-1.1,0.2-2.2-0.3-2.8-1.2c0,0-4.7-6.3-5.1-6.3"/>
		</g>
		<g>
			<path fill="#E2E2E2" d="M183.6,150.2c-2.8,0.4-4.7,3-4.3,5.8c0.2,1.2,1.3,2.6,1.2,2.9s-0.3,0.4-0.6,0.7l-6,4.7
				c-1.2,0.9-1.4,2.6-0.5,3.8v0c0.9,1.2,2.7,1.4,3.9,0.5l3.3-2.6l0.5,3c0.1,0.5-2,10.4-2,10.4l-0.6,0.1c-1.1,0.2-1.9,1-1.8,2.1
				c0.2,1.1,1.2,1.7,2.3,1.5l2.6-0.4c0,0,0-0.1,0.1-0.2c1.1-0.1,2-0.9,2.3-2c0,0,2.6-7.4,3-7.5"/>
			<path fill="#CDCFD3" d="M183.6,150.2c2.8-0.4,5.4,1.5,5.8,4.3c0.2,1.2-0.5,2.8-0.3,3.1s0.4,0.3,0.8,0.5l7.1,2.7
				c1.4,0.5,2.1,2,1.7,3.4l0,0c-0.5,1.4-2,2.1-3.5,1.7l-3.8-1.5l0.5,3c0.1,0.5,4.8,9.4,4.8,9.4l0.6-0.1c1.1-0.2,2.1,0.4,2.3,1.5
				c0.2,1.1-0.6,1.9-1.8,2.1l-2.6,0.4c0,0-0.1-0.1-0.1-0.1c-1.1,0.2-2.2-0.3-2.8-1.2c0,0-4.7-6.3-5.1-6.3"/>
		</g>
		<g>
			<path fill="#E2E2E2" d="M219.3,144.8c-2.8,0.4-4.7,3-4.3,5.8c0.2,1.2,1.3,2.6,1.2,2.9c-0.1,0.3-0.3,0.4-0.6,0.7l-6,4.7
				c-1.2,0.9-1.4,2.6-0.5,3.8v0c0.9,1.2,2.5,1.4,3.7,0.6l3.1-2.6l0.5,3c0.1,0.5-1.7,10.4-1.7,10.4l-0.6,0.1c-1.1,0.2-1.9,1-1.8,2.1
				c0.2,1.1,1.2,1.7,2.3,1.5l2.6-0.4c0,0,0-0.1,0.1-0.2c1.1-0.1,2-0.9,2.3-2c0,0,2.6-7.4,3-7.5"/>
			<path fill="#CDCFD3" d="M219.3,144.8c2.8-0.4,5.4,1.5,5.8,4.3c0.2,1.2-0.5,2.8-0.3,3.1c0.1,0.3,0.4,0.3,0.8,0.5l7.1,2.7
				c1.4,0.5,2.1,2,1.7,3.4l0,0c-0.5,1.4-1.8,2.1-3.2,1.6l-3.6-1.6l0.5,3c0.1,0.5,4.4,9.4,4.4,9.4l0.6-0.1c1.1-0.2,2.1,0.4,2.3,1.5
				c0.2,1.1-0.6,1.9-1.8,2.1l-2.6,0.4c0,0-0.1-0.1-0.1-0.1c-1.1,0.2-2.2-0.3-2.8-1.2c0,0-4.7-6.3-5.1-6.3"/>
		</g>
		<g>
			<path fill="#E2E2E2" d="M255,139.7c-2.8,0.4-4.7,3-4.3,5.8c0.2,1.2,1.3,2.6,1.2,2.9s-0.3,0.4-0.6,0.7l-6,4.7
				c-1.2,0.9-1.4,2.6-0.5,3.8v0c0.9,1.2,2.8,1.4,4,0.5l3.4-2.6l0.5,3c0.1,0.5-2.2,10.1-2.2,10.1l-0.6,0.1c-1.1,0.2-1.9,1.4-1.7,2.5
				c0.2,1.1,1.2,2,2.4,1.9l2.6-0.4c0,0,0-0.3,0.1-0.3c1.1-0.1,2-1,2.3-2.1c0,0,2.6-7.5,3-7.6"/>
			<path fill="#CDCFD3" d="M255,139.7c2.8-0.4,5.4,1.5,5.8,4.3c0.2,1.2-0.5,2.8-0.3,3.1s0.4,0.3,0.8,0.5l7.1,2.7
				c1.4,0.5,2.1,2,1.7,3.4l0,0c-0.5,1.4-2,2.1-3.4,1.6l-3.7-1.5l0.5,3c0.1,0.5,4.6,9,4.6,9l0.6-0.1c1.1-0.2,2.2,0.7,2.4,1.9
				c0.2,1.1-0.6,2.3-1.7,2.5l-2.6,0.4c0,0-0.1-0.3-0.1-0.3c-1.1,0.2-2.2-0.4-2.8-1.3c0,0-4.7-6.4-5.1-6.3"/>
		</g>
		<g>
			<path fill="#E2E2E2" d="M290.6,134.2c-2.8,0.4-4.7,3-4.3,5.8c0.2,1.2,1.3,2.6,1.2,2.9c-0.1,0.3-0.3,0.4-0.6,0.7l-6,4.7
				c-1.2,0.9-1.4,2.6-0.5,3.8v0c0.9,1.2,2.6,1.4,3.8,0.5l3.2-2.6l0.5,3c0.1,0.5-1.9,10-1.9,10l-0.6,0.1c-1.1,0.2-1.9,1.4-1.7,2.5
				c0.2,1.1,1.2,2,2.4,1.9l2.6-0.4c0,0,0-0.3,0.1-0.3c1.1-0.1,2-1,2.3-2.1c0,0,2.6-7.5,3-7.6"/>
			<path fill="#CDCFD3" d="M290.6,134.2c2.8-0.4,5.4,1.5,5.8,4.3c0.2,1.2-0.5,2.8-0.3,3.1c0.1,0.3,0.4,0.3,0.8,0.5l7.1,2.7
				c1.4,0.5,2.1,2,1.7,3.4v0c-0.5,1.4-2.1,2.2-3.5,1.7l-3.9-1.5l0.5,3c0.1,0.5,4.9,9,4.9,9l0.6-0.1c1.1-0.2,2.2,0.7,2.4,1.9
				c0.2,1.1-0.6,2.3-1.7,2.5l-2.6,0.4c0,0-0.1-0.3-0.1-0.3c-1.1,0.2-2.2-0.4-2.8-1.3c0,0-4.7-6.4-5.1-6.3"/>
		</g>
	</g>
</g>
</svg>
