<?xml version="1.0" encoding="utf-8"?>
<!-- Generator: Adobe Illustrator 19.1.0, SVG Export Plug-In . SVG Version: 6.00 Build 0)  -->
<svg version="1.1" id="Layer_1" xmlns="http://www.w3.org/2000/svg" xmlns:xlink="http://www.w3.org/1999/xlink" x="0px" y="0px"
	 viewBox="0 0 50 50" enable-background="new 0 0 50 50" xml:space="preserve">
<g id="_x39_TSBFv.tif_1_">
	<g>
		<path fill="#EF5329" d="M25,0c13.8,0,25,11.1,25,25c0.1,13.8-11.1,25-25,25C11.2,50,0,38.8,0,25C0,11.2,11.1,0,25,0z M24.9,39
			c2.7,0,5.5,0,8.2,0c3.1,0,5.4-2.3,5.4-5.4c0-5.5,0-10.9,0-16.4c0-3.1-2.3-5.4-5.4-5.4c-5.5,0-10.9,0-16.4,0
			c-3.2,0-5.4,2.3-5.4,5.5c0,5.4,0,10.8,0,16.2c0,3.2,2.2,5.5,5.4,5.5C19.4,39,22.2,39,24.9,39z"/>
		<path fill="#EF5329" d="M14,22.6c1.4,0,2.6,0,3.9,0c-1.1,3.7-0.3,6.8,2.9,9c2.4,1.7,5.7,1.6,8.2-0.1c1.5-1,2.4-2.3,3-4
			c0.5-1.6,0.4-3.3-0.2-4.9c1.4,0,2.7,0,4,0c0,0.2,0,0.4,0,0.6c0,3.4,0,6.8,0,10.2c0,1.8-1,2.9-2.9,2.9c-5.4,0-10.7,0-16.1,0
			c-1.9,0-2.9-1-2.9-2.9c0-3.4,0-6.8,0-10.2C13.9,23,14,22.9,14,22.6z"/>
		<path fill="#EF5329" d="M24.9,20.6c2.6,0,4.8,2.1,4.8,4.7c0,2.7-2.2,4.8-4.8,4.8c-2.6,0-4.7-2.2-4.7-4.8
			C20.1,22.8,22.3,20.6,24.9,20.6z"/>
		<path fill="#EF5329" d="M35.3,19.5c-1.5,0-3,0-4.5,0c0-1.5,0-3,0-4.5c1.5,0,3,0,4.5,0C35.3,16.5,35.3,17.9,35.3,19.5z"/>
	</g>
</g>
</svg>
