<?xml version="1.0" encoding="utf-8"?>
<!-- Generator: Adobe Illustrator 19.1.0, SVG Export Plug-In . SVG Version: 6.00 Build 0)  -->
<svg version="1.1" id="Layer_1" xmlns="http://www.w3.org/2000/svg" xmlns:xlink="http://www.w3.org/1999/xlink" x="0px" y="0px"
	 viewBox="0 0 271.5 394" enable-background="new 0 0 271.5 394" xml:space="preserve">
<g>
	<rect x="83.2" y="83" fill="#FFFFFF" width="114" height="275"/>
	<rect x="197.2" y="83" fill="#E1EAEA" width="74" height="275"/>
	<polygon fill="#CEDDDD" points="197.4,83 234.4,18 271.5,83 	"/>
	<path fill="#FFFFFF" d="M234.2,19.2c0,3.7-3,6.8-6.8,6.8H126.9c-3.7,0-6.8-3-6.8-6.8V6.8c0-3.7,3-6.8,6.8-6.8h100.5
		c3.7,0,6.8,3,6.8,6.8V19.2z"/>
	<polygon fill="#E1EAEA" points="234.7,18 197.4,83 83.3,83 120.3,18 	"/>
	<rect x="83.2" y="168" fill="#5CC6C1" width="114" height="63"/>
	<rect x="197.2" y="168" fill="#3EBAB1" width="74" height="63"/>
	<polygon fill="#BECCCC" points="271.5,82.8 234.7,18.2 219.2,44.9 	"/>
	<path fill="#E6EAEF" d="M24.2,387c0,0,5.2,7,47.5,7s47.5-7,47.5-7l21-179H3.2L24.2,387z"/>
	<g>
		<ellipse fill="#DFE3E8" cx="71.7" cy="208" rx="68.5" ry="11"/>
	</g>
	<ellipse fill="#F7F8F9" cx="71.9" cy="252" rx="57.7" ry="8"/>
	<polyline fill="none" stroke="#EF5329" stroke-width="8" stroke-miterlimit="10" points="83.3,289 59.2,168.1 3.2,143 	"/>
	<path fill="#FFFFFF" d="M31.9,381.9c0,0,4.4,5.1,40,5.1s40-5.1,40-5.1L129.6,252c0,0-29.4,7-58.1,7s-57.3-7-57.3-7L31.9,381.9z"/>
	<ellipse transform="matrix(0.4253 -0.905 0.905 0.4253 -127.5056 84.9238)" fill="#DB4623" cx="3.1" cy="142.9" rx="4" ry="2.9"/>
	
		<rect x="26.5" y="272.8" transform="matrix(0.9929 -0.1194 0.1194 0.9929 -36.3653 5.6738)" fill="#E1EFEF" width="5.4" height="67.4"/>
</g>
</svg>
