<?xml version="1.0" encoding="utf-8"?>
<!-- Generator: Adobe Illustrator 19.1.0, SVG Export Plug-In . SVG Version: 6.00 Build 0)  -->
<svg version="1.1" id="Layer_1" xmlns="http://www.w3.org/2000/svg" xmlns:xlink="http://www.w3.org/1999/xlink" x="0px" y="0px"
	 viewBox="0 0 50 50" enable-background="new 0 0 50 50" xml:space="preserve">
<g>
	<path fill="#EF5329" d="M0,25C0,11.1,11.2,0,25,0c13.9,0,25,11.2,25,25.1C50,38.9,38.7,50,24.9,50C11.1,50,0,38.7,0,25z M20.3,30.8
		c-2.1,1.6-4.4,1.9-6.9,2c0.1,0.1,0.2,0.2,0.3,0.3c3,1.7,6.2,2.2,9.6,1.7c6.8-1.1,11.4-7,11.8-13.7c0-0.7,0.3-1.3,0.8-1.8
		c0.3-0.3,0.5-0.5,0.8-0.8c0.3-0.3,0.5-0.6,0.8-0.9c0,0-0.1-0.1-0.1-0.1c-0.7,0.2-1.3,0.4-2,0.6c0,0,0-0.1-0.1-0.1
		c0.5-0.8,1.1-1.6,1.6-2.3c0,0-0.1-0.1-0.1-0.1c-0.6,0.2-1.1,0.4-1.7,0.7c-0.8,0.4-1.6,0.4-2.3-0.3c-0.1-0.1-0.2-0.1-0.3-0.2
		c-3-1.8-7,0.2-7.4,3.7c-0.1,0.6,0,1.2,0,1.8c-4.2-0.3-7.5-2.2-10.3-5.3c-1.1,2.5-0.7,4.7,1.2,6.7c-0.1,0-0.1,0.1-0.2,0.1
		c-0.6-0.2-1.2-0.3-1.8-0.5c0.1,1.2,0.4,2.2,1.1,3.1c0.7,0.9,1.6,1.4,2.6,1.9c0,0.1,0,0.1-0.1,0.2c-0.5,0-1.1,0-1.8,0
		C16.7,29.4,18.4,30.2,20.3,30.8z"/>
</g>
</svg>
